<?xml version="1.0" encoding="utf-8"?>
<!-- Generator: Adobe Illustrator 16.0.0, SVG Export Plug-In . SVG Version: 6.00 Build 0)  -->
<!DOCTYPE svg PUBLIC "-//W3C//DTD SVG 1.1//EN" "http://www.w3.org/Graphics/SVG/1.1/DTD/svg11.dtd">
<svg version="1.1" id="Layer_1" xmlns="http://www.w3.org/2000/svg" xmlns:xlink="http://www.w3.org/1999/xlink" x="0px" y="0px"
	 width="900px" height="900px" viewBox="0 0 900 900" style="enable-background:new 0 0 900 900;" xml:space="preserve">
<style type="text/css">
<![CDATA[
	.st0{fill:#7A5593;}
	.st1{fill:#7A6B99;}
	.st2{fill:#AA727D;}
	.st3{fill:#491D2A;}
	.st4{fill:#7F2F2F;}
	.st5{fill:#EF00DE;stroke:#FF4569;stroke-width:14.1058;stroke-linecap:round;stroke-linejoin:round;stroke-miterlimit:10;}
	.st6{fill:#E8B0B8;}
	.st7{filter:url(#Adobe_OpacityMaskFilter);}
	.st8{fill:#B27280;}
	.st9{opacity:0.15;}
	.st10{fill:#B72F2C;}
	.st11{fill:#B73A24;}
	.st12{fill:#1DAAAA;}
	.st13{fill:#892E2E;}
	.st14{fill:#1E2F33;}
	.st15{fill:#EF1111;}
	.st16{fill:#57E7FF;}
	.st17{fill:#FFF7F5;stroke:#FFF7F5;stroke-width:0.7442;stroke-miterlimit:10;}
	.st18{fill:#5993D8;}
	.st19{fill:#8E3925;}
	.st20{fill:#231F20;}
	.st21{fill:#F2AEA7;}
	.st22{fill:#283B41;}
	.st23{fill:#D30079;stroke:#FF3977;stroke-width:9.7378;stroke-linecap:round;stroke-linejoin:round;stroke-miterlimit:10;}
	.st24{fill:#F99D4B;}
	.st25{fill:#5FE8FF;}
	.st26{fill:#91BBB9;}
	.st27{fill:#FF68D0;stroke:#FFA76C;stroke-width:14.1058;stroke-linecap:round;stroke-linejoin:round;stroke-miterlimit:10;}
	.st28{mask:url(#SVGID_1_);}
	.st29{mask:url(#SVGID_2_);}
	.st30{fill:#9286C4;}
	.st31{fill:#939598;}
	.st32{fill:#FFDDD8;stroke:#F2AEA7;stroke-width:10;stroke-linecap:round;stroke-miterlimit:10;}
	.st33{fill:#FA7B72;}
	.st34{fill:#C7B5E2;}
	.st35{fill:#992E2E;}
	.st36{opacity:0.1;}
	.st37{opacity:0.2;}
	.st38{opacity:0.3;}
	.st39{opacity:0.4;}
	.st40{opacity:0.5;}
	.st41{opacity:0.6;}
	.st42{opacity:0.7;}
	.st43{fill:#FF3977;}
	.st44{fill:#FF4569;}
	.st45{fill:#FF5649;}
	.st46{fill:#FF5D65;}
	.st47{fill:#FF6254;}
	.st48{fill:#FF68D0;}
	.st49{fill:#FF71DA;}
	.st50{fill:#FF822E;}
	.st51{fill:#FF8C6B;}
	.st52{fill:#FF8E55;}
	.st53{fill:#FFA76C;}
	.st54{fill:#FFA847;}
	.st55{fill:#FFAA81;}
	.st56{fill:#FFB497;}
	.st57{fill:#FFB92E;}
	.st58{fill:#FFBD48;}
	.st59{fill:#FFCE31;}
	.st60{fill:#FFD664;}
	.st61{fill:#FFDDD8;}
	.st62{fill:#FFE6E3;}
	.st63{fill:#FFE8E2;}
	.st64{fill:#FFEB78;}
	.st65{fill:#FFF4F3;}
	.st66{fill:#FFF7F5;}
	.st67{fill:#FFF9F8;}
	.st68{fill:#FFFFFF;}
	.st69{fill:#625682;}
	.st70{fill:#EF00DE;stroke:#FF4569;stroke-width:13.4005;stroke-linecap:round;stroke-linejoin:round;stroke-miterlimit:10;}
	.st71{fill:#9B6262;}
	.st72{fill:#CC4B2E;}
	.st73{fill:#CE6F5F;}
	.st74{fill:#32D5FC;}
	.st75{fill:#6B2017;}
	.st76{fill:#6C2031;}
	.st77{fill:#D30079;stroke:#008ECE;stroke-width:12.5602;stroke-linecap:round;stroke-linejoin:round;stroke-miterlimit:10;}
	.st78{fill:#FFE8E2;stroke:#FFE8E2;stroke-width:0.7442;stroke-miterlimit:10;}
	.st79{fill:#6D3C4B;}
	.st80{fill:#008ECE;}
	.st81{fill:#00CEC8;}
	.st82{fill:#6F3E84;}
	.st83{fill:#D18B98;}
	.st84{fill:#D30079;}
	.st85{fill:#D3817D;}
	.st86{fill:#D6347E;}
	.st87{fill:#3D4A81;}
	.st88{fill:#3D6181;}
	.st89{fill:#A546A5;}
	.st90{opacity:0.3;fill:#231F20;}
	.st91{fill:#A795C1;}
	.st92{fill:#402E44;}
	.st93{fill:none;stroke:#877D94;stroke-width:7.2466;stroke-miterlimit:10;}
	.st94{filter:url(#Adobe_OpacityMaskFilter_1_);}
	.st95{fill:#447F87;}
	.st96{fill:none;stroke:#A795C1;stroke-width:7.2466;stroke-miterlimit:10;}
]]>
</style>
<g>
	<g>
		<g class="st36">
			<path class="st33" d="M91.6,368.8c3.6,0,7,0.5,10.3,1.3c0,0,0.1,0,0.1,0c0.9,0.2,1.8,0.5,2.7,0.8c0.3,0.1,0.6,0.2,0.9,0.3
				c0.4,0.2,0.9,0.3,1.3,0.5c4.9,2,9.3,5,13,8.7c7.3,7.2,11.8,17.3,11.8,28.4c0,22.2-18,40.1-40.1,40.1c-7,0-13.5-1.8-19.2-4.9
				c-5.6-3.1-10.4-7.4-13.9-12.7c-2.3-3.4-4.1-7.2-5.3-11.2c-0.5-1.9-1-3.8-1.2-5.7c-0.3-1.8-0.4-3.7-0.4-5.6c0-1.7,0.1-3.4,0.3-5
				c0,0,0-0.1,0-0.1c0.5-3.6,1.4-7.1,2.8-10.4c0,0,2.9-5.9,4.9-8.5c0,0,0,0,0,0c0.4-0.5,0.8-1,1.2-1.5c0.4-0.5,0.9-1,1.3-1.5
				c0.4-0.5,0.9-0.9,1.3-1.4c1.8-1.8,3.8-3.5,6-4.9c0.5-0.4,1.1-0.7,1.6-1c0.6-0.3,1.1-0.7,1.7-1c0.6-0.3,1.1-0.6,1.7-0.9
				c0.7-0.3,1.4-0.6,2.1-0.9c0.5-0.2,1.1-0.4,1.6-0.6c0.3-0.1,0.6-0.2,0.9-0.3c0.6-0.2,1.3-0.4,1.9-0.6c0.3-0.1,0.6-0.2,1-0.3
				c0.6-0.2,1.2-0.3,1.8-0.4c0.1,0,0.1,0,0.2,0c0.3-0.1,0.6-0.1,0.9-0.2c0.3-0.1,0.7-0.1,1-0.2C87.6,369,89.6,368.8,91.6,368.8
				L91.6,368.8z M91.6,332c-3.9,0-7.7,0.3-11.5,0.9l0,0l0,0c-0.6,0.1-1.2,0.2-1.8,0.3l-0.2,0l-0.2,0l-0.5,0.1l-0.4,0.1l-0.3,0
				l-0.3,0.1l0,0l0,0l-0.1,0l-0.2,0l-0.2,0c-0.8,0.2-2,0.4-3.4,0.8l-0.1,0l-0.1,0c-0.5,0.1-1.1,0.3-1.6,0.4
				c-1.2,0.3-2.4,0.7-3.7,1.1c-0.7,0.2-1.4,0.5-2.1,0.7c-1,0.4-1.9,0.7-2.8,1.1l0,0l0,0c-1.3,0.5-2.6,1.1-3.9,1.7l-0.2,0.1l-0.2,0.1
				c-0.9,0.5-1.9,0.9-2.9,1.5l-0.2,0.1l-0.2,0.1c-1.1,0.6-2.1,1.2-3,1.7l-0.2,0.1l-0.2,0.1c-0.7,0.5-1.7,1.1-2.9,1.9
				c-4,2.7-7.9,5.9-11.3,9.4c-0.9,0.9-1.7,1.8-2.6,2.7c-0.7,0.8-1.5,1.7-2.3,2.6l-0.2,0.2l-0.1,0.2c0,0.1-0.1,0.1-0.1,0.2l-0.3,0.3
				L30,363c-3.4,4.6-6.7,10.9-8.3,14.2l-0.5,1.1l-0.5,1.1c-2.3,5.5-4,11.3-4.9,17.3l-0.1,0.6l-0.3,2.3c-0.4,3.1-0.6,6.3-0.6,9.5
				c0,3.6,0.3,7.2,0.7,10.7c0.5,3.7,1.3,7.4,2.4,11c2.2,7.6,5.7,14.9,10.2,21.5c6.8,10,16,18.4,26.7,24.2l0,0
				c11.3,6.2,24,9.4,36.9,9.4c42.4,0,76.9-34.5,76.9-76.9c0-20.5-8-39.8-22.5-54.3l0,0c-7.2-7.2-15.6-12.8-24.9-16.7
				c-0.9-0.4-1.8-0.7-2.7-1.1l-0.1,0l-0.1,0l-0.1,0c-0.3-0.1-0.7-0.3-1.1-0.4l-0.1,0l-0.1,0c-1.4-0.5-2.9-1-4.3-1.4l-0.1,0l-1-0.3
				C105,332.9,98.4,332,91.6,332L91.6,332z"/>
		</g>
		<g class="st39">
			<path class="st86" d="M91.6,368.8c3.6,0,7,0.5,10.3,1.3c0,0,0.1,0,0.1,0c0.9,0.2,1.8,0.5,2.7,0.8c0.3,0.1,0.6,0.2,0.9,0.3
				c0.4,0.2,0.9,0.3,1.3,0.5c4.9,2,9.3,5,13,8.7c7.3,7.2,11.8,17.3,11.8,28.4c0,22.2-18,40.1-40.1,40.1c-7,0-13.5-1.8-19.2-4.9
				c-5.6-3.1-10.4-7.4-13.9-12.7c-2.3-3.4-4.1-7.2-5.3-11.2c-0.5-1.9-1-3.8-1.2-5.7c-0.3-1.8-0.4-3.7-0.4-5.6c0-1.7,0.1-3.4,0.3-5
				c0,0,0-0.1,0-0.1c0.5-3.6,1.4-7.1,2.8-10.4c0,0,2.9-5.9,4.9-8.5c0,0,0,0,0,0c0.4-0.5,0.8-1,1.2-1.5c0.4-0.5,0.9-1,1.3-1.5
				c0.4-0.5,0.9-0.9,1.3-1.4c1.8-1.8,3.8-3.5,6-4.9c0.5-0.4,1.1-0.7,1.6-1c0.6-0.3,1.1-0.7,1.7-1c0.6-0.3,1.1-0.6,1.7-0.9
				c0.7-0.3,1.4-0.6,2.1-0.9c0.5-0.2,1.1-0.4,1.6-0.6c0.3-0.1,0.6-0.2,0.9-0.3c0.6-0.2,1.3-0.4,1.9-0.6c0.3-0.1,0.6-0.2,1-0.3
				c0.6-0.2,1.2-0.3,1.8-0.4c0.1,0,0.1,0,0.2,0c0.3-0.1,0.6-0.1,0.9-0.2c0.3-0.1,0.7-0.1,1-0.2C87.6,369,89.6,368.8,91.6,368.8
				L91.6,368.8z M91.6,359.2c-2.5,0-5,0.2-7.4,0.6c-0.4,0.1-0.8,0.1-1.2,0.2l0,0l0,0l-0.5,0.1l-0.4,0.1l-0.1,0l-0.1,0l-0.1,0l-0.1,0
				l0,0l0,0c-0.6,0.1-1.4,0.3-2.2,0.5c-0.4,0.1-0.8,0.2-1.2,0.3c-0.8,0.2-1.5,0.5-2.4,0.7c-0.4,0.1-0.8,0.3-1.2,0.4
				c-0.7,0.3-1.3,0.5-1.9,0.7c-0.8,0.3-1.7,0.7-2.6,1.1l0,0l0,0c-0.6,0.3-1.3,0.6-2,1l0,0l0,0c-0.8,0.4-1.4,0.8-2.1,1.2l-0.1,0l0,0
				c-0.5,0.3-1.2,0.8-1.9,1.2c-2.6,1.8-5.1,3.8-7.4,6.1c-0.6,0.6-1.1,1.2-1.6,1.7c-0.5,0.5-1,1.1-1.5,1.8l0,0l0,0
				c-0.3,0.4-0.7,0.8-0.9,1.2l0,0l0,0l0,0l-0.4,0.6c-2.4,3.2-5.2,8.9-5.8,10l-0.1,0.3l-0.1,0.3c-1.6,3.9-2.8,8-3.3,12.2l0,0.1
				l-0.1,0.6l0,0.1c-0.3,2-0.4,4.1-0.4,6.2c0,2.3,0.2,4.7,0.5,6.9c0.3,2.4,0.8,4.8,1.5,7.1c1.5,4.9,3.7,9.6,6.6,13.9
				c4.4,6.5,10.4,11.9,17.3,15.7c7.3,4,15.5,6.1,23.9,6.1c27.4,0,49.8-22.3,49.8-49.8c0-13.3-5.2-25.8-14.6-35.2
				c-4.7-4.7-10.1-8.3-16.2-10.8c-0.5-0.2-1.1-0.4-1.7-0.6l0,0l0,0l-0.1,0c-0.3-0.1-0.6-0.2-0.9-0.3c-1.1-0.4-2.2-0.7-3.2-1l0,0
				l-0.3-0.1C100.3,359.7,96,359.2,91.6,359.2L91.6,359.2z"/>
		</g>
		<path class="st43" d="M131.7,408.9c0,22.2-18,40.1-40.1,40.1c-7,0-13.5-1.8-19.2-4.9c-5.6-3.1-10.4-7.4-13.9-12.7
			c-2.3-3.4-4.1-7.2-5.3-11.2c-0.5-1.9-1-3.8-1.2-5.7c-0.3-1.8-0.4-3.7-0.4-5.6c0-1.7,0.1-3.4,0.3-5c0,0,0-0.1,0-0.1
			c0.5-3.6,1.4-7.1,2.8-10.4c0,0,2.9-5.9,4.9-8.5c0,0,0,0,0,0c0.4-0.5,0.8-1,1.2-1.5c0.4-0.5,0.9-1,1.3-1.5c0.4-0.5,0.9-0.9,1.3-1.4
			c1.8-1.8,3.8-3.5,6-4.9c0.5-0.4,1.1-0.7,1.6-1c0.6-0.3,1.1-0.7,1.7-1c0.6-0.3,1.1-0.6,1.7-0.9c0.7-0.3,1.4-0.6,2.1-0.9
			c0.5-0.2,1.1-0.4,1.6-0.6c0.3-0.1,0.6-0.2,0.9-0.3c0.6-0.2,1.3-0.4,1.9-0.6c0.3-0.1,0.6-0.2,1-0.3c0.6-0.2,1.2-0.3,1.8-0.4
			c0.1,0,0.1,0,0.2,0c0.3-0.1,0.6-0.1,0.9-0.2c0.3-0.1,0.7-0.1,1-0.2c1.9-0.3,3.9-0.4,6-0.4c3.6,0,7,0.5,10.3,1.3c0,0,0.1,0,0.1,0
			c0.9,0.2,1.8,0.5,2.7,0.8c0.3,0.1,0.6,0.2,0.9,0.3c0.4,0.2,0.9,0.3,1.3,0.5c4.9,2,9.3,5,13,8.7
			C127.3,387.8,131.7,397.8,131.7,408.9z"/>
	</g>
	<g>
		<path class="st24" d="M108.2,375.4l-2.9-2.4l0,0c0,0,0.6-0.4,1.6-1.1c-0.4-0.2-0.9-0.3-1.3-0.5c-0.3-0.1-0.6-0.2-0.9-0.3
			c-0.9-0.3-1.8-0.6-2.8-0.9l0,0c-3.3-0.9-6.7-1.3-10.3-1.3c-2,0-4,0.1-6,0.4c-0.3,0.1-0.7,0.1-1,0.2c-0.3,0.1-0.6,0.1-0.9,0.2
			c-0.1,0-0.1,0-0.2,0c-0.6,0.1-1.2,0.3-1.8,0.4c-0.3,0.1-0.6,0.2-1,0.3c-0.6,0.2-1.3,0.4-1.9,0.6c-0.3,0.1-0.6,0.2-0.9,0.3
			c-0.5,0.2-1.1,0.4-1.6,0.6c-0.7,0.3-1.4,0.6-2.1,0.9c-0.6,0.3-1.1,0.6-1.7,0.9c-0.6,0.3-1.2,0.7-1.7,1c-0.5,0.3-1.1,0.7-1.6,1
			c-2.1,1.4-4.1,3.1-6,4.9c-0.5,0.5-0.9,0.9-1.3,1.4c-0.4,0.5-0.9,1-1.3,1.5c-0.4,0.5-0.8,1-1.2,1.5c0,0,0,0,0,0
			c-1.9,2.6-3.6,5.5-4.8,8.5h0c-1.4,3.3-2.3,6.7-2.8,10.4l0,0c0,0,0,0.1,0,0.1c0,0,0,0,0,0c-0.2,1.6-0.3,3.3-0.3,5
			c0,1.9,0.1,3.8,0.4,5.6c0.9,6.2,3.2,12,6.5,17c1.2-0.1,2.3-0.7,3.1-1.7c1.1-1.3,1.4-3,0.9-4.5l1.5,1.2c0.9,0.8,2,1.1,3.1,1.1
			c1.4,0,2.8-0.6,3.7-1.8c1.7-2.1,1.4-5.1-0.6-6.9l-3.5-2.4c0.7,0.4,1-1.9,1.8-1.9c1.4,0-0.3-1.4,0.6-2.6c1.7-2.1,4.3,0.3,2.3-1.4
			h-0.8l3.9-1l9.9,7.8c0.9,0.7,2,1.1,3,1.1c1.4,0,2.8-0.6,3.8-1.8c1.7-2.1,1.4-5.2-0.7-6.8l-6.9-5.7c0.2,0,0.4,0.1,0.6,0.1
			c1.4,0,2.8-0.6,3.7-1.8c1.7-2.1,1.4-5.1-0.6-6.9l-7.2-6c0,0,0,0,0.1,0l15.1,12.1c0.9,0.7,1.9,1,2.9,1c1.4,0,2.7-0.6,3.6-1.7
			c1.6-2,1.3-4.9-0.7-6.5l-13-10.4c2.1-1.5,5.5-3.6,8.7-5.6l5.3,4.4c0.9,0.8,2,1.1,3.1,1.1c1.4,0,2.8-0.6,3.7-1.8
			C110.6,380.2,110.3,377.1,108.2,375.4z"/>
	</g>
	<path class="st23" d="M92.5,381.3l17.3,14.4L92.5,381.3z"/>
	<g>
		<path class="st43" d="M120,380.6c-0.8,0.5-1.8,0.8-2.7,0.8c-1.1,0-2.2-0.4-3.1-1.1l-12.1-10.1c0.9,0.2,1.8,0.5,2.7,0.8
			c0.3,0.1,0.6,0.2,0.9,0.3c0.4,0.2,0.9,0.3,1.3,0.5C111.9,373.9,116.3,376.9,120,380.6z"/>
	</g>
	<g>
		<path class="st84" d="M54.5,424.9l17.3,14.4L54.5,424.9z"/>
		<path class="st43" d="M75.5,442.4c-0.8,1-2,1.6-3.1,1.7c-5.6-3.1-10.4-7.4-13.9-12.7c-2.3-3.4-4.1-7.2-5.3-11.2
			c1.5-0.5,3.2-0.2,4.5,0.9l17.3,14.4C77,437.3,77.3,440.4,75.5,442.4z"/>
	</g>
	<path class="st23" d="M69.2,411.8l10.1,8.4L69.2,411.8z"/>
	<path class="st23" d="M82,396.7l17,14.3L82,396.7z"/>
</g>
<g>
	<defs>
		<filter id="Adobe_OpacityMaskFilter" filterUnits="userSpaceOnUse" x="233.9" y="308.7" width="269.2" height="242.4">
			<feFlood  style="flood-color:white;flood-opacity:1" result="back"/>
			<feBlend  in="SourceGraphic" in2="back" mode="normal"/>
		</filter>
	</defs>
	<mask maskUnits="userSpaceOnUse" x="233.9" y="308.7" width="269.2" height="242.4" id="SVGID_1_">
		<g class="st7">
			<g>
				<path class="st20" d="M500.1,576.5c-2.7,0-5.4-0.9-7.5-2.8L211,326.8c-4.7-4.2-5.2-11.4-1.1-16.1c4.2-4.7,11.4-5.2,16.1-1.1
					l281.6,246.9c4.7,4.2,5.2,11.4,1.1,16.1C506.4,575.2,503.3,576.5,500.1,576.5z"/>
			</g>
		</g>
	</mask>
	<g class="st28">
		
			<rect x="206.5" y="410.6" transform="matrix(0.7525 0.6586 -0.6586 0.7525 374.3579 -136.2656)" class="st30" width="323.9" height="38.7"/>
	</g>
	<g>
		<g>
			<g>
				<g>
					<circle class="st31" cx="277.5" cy="454.5" r="1.2"/>
				</g>
			</g>
			<circle class="st90" cx="235.7" cy="433.3" r="1.3"/>
			<g>
				<path class="st35" d="M464.1,435.8c0,24.7-8.7,47.4-23.3,65.2c-6.8,8.3-14.9,15.6-23.9,21.4c-3.3,2.1-6.7,4-10.1,5.8
					c-7.7,3.8-16,6.7-24.7,8.5c-6.8,1.4-13.9,2.2-21.1,2.2c-41,0-76.3-23.9-93-58.5c-5-10.4-8.3-21.7-9.5-33.6c0-0.2,0-0.4-0.1-0.6
					v0c-0.3-3.4-0.5-6.9-0.5-10.5c0-4.2,0.3-8.4,0.8-12.5c1.5-12.8,5.5-25,11.3-35.9c1.9-3.5,4-7,6.2-10.2c2.2-3.2,4.6-6.2,7.1-9.1
					c0,0,0,0,0.1-0.1c0.6-0.7,1.2-1.3,1.8-2c8.3-9.1,18.2-16.6,29.3-22.2c0.3-0.1,0.7-0.4,0.7-0.4c13.8-6.9,29.4-10.7,45.9-10.7
					c12.7,0,24.9,2.3,36.1,6.5C436.2,353.9,464.1,391.6,464.1,435.8z"/>
				<g class="st39">
					<path class="st0" d="M361,332.8c12.7,0,24.9,2.3,36.1,6.5c39.1,14.6,67,52.4,67,96.6c0,24.7-8.7,47.4-23.3,65.2
						c-6.8,8.3-14.9,15.6-23.9,21.4c-3.3,2.1-6.7,4-10.1,5.8c-7.7,3.8-16,6.7-24.7,8.5c-6.8,1.4-13.9,2.2-21.1,2.2
						c-41,0-76.3-23.9-93-58.5c-5-10.4-8.3-21.7-9.5-33.6c0-0.2,0-0.4-0.1-0.6v0c-0.3-3.4-0.5-6.9-0.5-10.5c0-4.2,0.3-8.4,0.8-12.5
						c1.5-12.8,5.5-25,11.3-35.9c1.9-3.5,4-7,6.2-10.2c2.2-3.2,4.6-6.2,7.1-9.1c0,0,0,0,0.1-0.1c0.6-0.7,1.2-1.3,1.8-2
						c8.3-9.1,18.2-16.6,29.3-22.2c0.3-0.1,0.7-0.4,0.7-0.4C328.9,336.6,344.5,332.8,361,332.8L361,332.8z M361,280
						c-24.3,0-47.7,5.5-69.4,16.3l-0.5,0.2l-0.5,0.3l-0.1,0.1l0,0c-16.7,8.5-31.7,19.8-44.3,33.6l0,0l0,0c-0.5,0.6-1.1,1.2-1.6,1.8
						c-0.6,0.6-1.2,1.3-1.7,2c-3.5,4.1-6.9,8.4-9.9,12.9c-3.5,5-6.6,10.2-9.5,15.5c-9,17-14.8,35.2-17.1,54.3
						c-0.8,6.2-1.1,12.5-1.1,18.8c0,4.2,0.2,8.5,0.5,12.8v0.9l0.4,3.2l0,0c1.9,17.6,6.8,34.6,14.4,50.5c12.5,26.1,32,48.1,56.4,63.7
						c25.1,16.1,54.2,24.6,84.1,24.6c10.7,0,21.4-1.1,31.8-3.3l0,0c13-2.7,25.6-7,37.4-12.9l0,0l0,0c5.2-2.6,10.3-5.5,15.2-8.7l0,0
						l0,0c13.7-8.9,25.9-19.8,36.1-32.4c22.7-27.7,35.1-62.7,35.1-98.5c0-32.4-9.8-63.4-28.5-89.8c-18.2-25.7-43.3-45.2-72.8-56.2
						C398.1,283.3,379.8,280,361,280L361,280z"/>
				</g>
				<g class="st41">
					<path class="st72" d="M361,332.8c12.7,0,24.9,2.3,36.1,6.5c39.1,14.6,67,52.4,67,96.6c0,24.7-8.7,47.4-23.3,65.2
						c-6.8,8.3-14.9,15.6-23.9,21.4c-3.3,2.1-6.7,4-10.1,5.8c-7.7,3.8-16,6.7-24.7,8.5c-6.8,1.4-13.9,2.2-21.1,2.2
						c-41,0-76.3-23.9-93-58.5c-5-10.4-8.3-21.7-9.5-33.6c0-0.2,0-0.4-0.1-0.6v0c-0.3-3.4-0.5-6.9-0.5-10.5c0-4.2,0.3-8.4,0.8-12.5
						c1.5-12.8,5.5-25,11.3-35.9c1.9-3.5,4-7,6.2-10.2c2.2-3.2,4.6-6.2,7.1-9.1c0,0,0,0,0.1-0.1c0.6-0.7,1.2-1.3,1.8-2
						c8.3-9.1,18.2-16.6,29.3-22.2c0.3-0.1,0.7-0.4,0.7-0.4C328.9,336.6,344.5,332.8,361,332.8L361,332.8z M361,312.1
						c-19.3,0-37.8,4.3-55.1,12.9l-0.2,0.1l-0.2,0.1c0,0-0.3,0.1-0.4,0.2l-0.1,0l0,0c-13.3,6.7-25.1,15.7-35.2,26.7l0,0l0,0
						c-0.6,0.6-1.1,1.2-1.6,1.8c-0.3,0.3-0.5,0.6-0.8,0.9c-2.9,3.4-5.7,7-8.2,10.6c-2.7,3.9-5.3,8.1-7.5,12.3
						c-7.2,13.4-11.7,28-13.6,43.1c-0.6,4.9-0.9,9.9-0.9,14.9c0,3.8,0.2,7.6,0.5,11.4v0.3l0.2,1.3l0,0.1l0,0.2
						c1.5,14,5.4,27.5,11.5,40.2c10,20.7,25.5,38.2,44.8,50.6c19.9,12.8,43,19.5,66.8,19.5c8.5,0,17-0.9,25.3-2.6
						c10.3-2.1,20.2-5.6,29.6-10.2c4.2-2.1,8.2-4.4,12.1-6.9c10.9-7.1,20.6-15.7,28.7-25.7c18-22,27.9-49.8,27.9-78.3
						c0-25.7-7.8-50.4-22.6-71.3c-14.4-20.5-34.4-35.9-57.8-44.6C390.5,314.7,375.9,312.1,361,312.1L361,312.1z"/>
				</g>
			</g>
			<path class="st72" d="M289.3,472.4l-3.2-2.8c-4.2-3.7-10.7-3.3-14.4,1c-3.1,3.6-3.3,8.7-0.8,12.4l-2.9-2.5
				c-5-10.4-8.3-21.7-9.6-33.6c1.7,0.3,3.4,1.1,4.8,2.3l24.3,21.2C288.2,471,288.8,471.7,289.3,472.4z"/>
			<g>
				<path class="st72" d="M337.3,451.9c-1.9,2.3-4.7,3.4-7.4,3.4c-2.2,0-4.5-0.8-6.3-2.3l-2.9-2.4c0.9,3.1,0.3,6.5-1.9,9.1
					c-1.9,2.3-4.7,3.4-7.4,3.4c-1.9,0-3.8-0.5-5.4-1.6l6.3,5.4c4.1,3.5,4.6,9.6,1.1,13.7c-1.9,2.3-4.7,3.4-7.4,3.4
					c-2.2,0-4.5-0.8-6.3-2.3l-41.4-35.3v0c-0.3-3.4-0.5-6.9-0.5-10.5c0-25.9,9.6-49.6,25.4-67.7l46.1,39.1c4.1,3.5,4.6,9.6,1.1,13.7
					c-1.9,2.3-4.7,3.4-7.4,3.4c-1.4,0-2.8-0.3-4.1-0.9l17.2,14.7C340.3,441.6,340.8,447.8,337.3,451.9z"/>
				<path class="st72" d="M420.5,370.8c-1.8,2.2-4.4,3.3-7.1,3.3c-2.1,0-4.2-0.7-5.9-2.1l-8.4-7c1.8,3.9,1.3,8.7-1.7,12.3
					c-2.3,2.8-5.6,4.2-9,4.2c-0.1,0-0.1,0-0.2,0l9.4,7.8c3.9,3.3,4.4,9.1,1.2,13c-1.8,2.2-4.4,3.3-7.1,3.3c-2.1,0-4.2-0.7-5.9-2.1
					l-68.5-57.1c-1-0.8-1.7-1.7-2.3-2.8c0,0,0,0,0,0c13.8-6.9,29.4-10.7,45.9-10.7c12.7,0,24.9,2.3,36.1,6.5l22.3,18.6
					C423.3,361.1,423.8,366.9,420.5,370.8z"/>
				<path class="st72" d="M387.8,444.1c-1.9,2.3-4.7,3.4-7.4,3.4c-2.2,0-4.5-0.8-6.3-2.3l-90.8-77.1c8.7-9.9,19.2-18.2,31.1-24.2
					l56.7,47.6c4.1,3.4,4.6,9.6,1.2,13.7c-1.9,2.3-4.7,3.5-7.4,3.5c-2.2,0-4.4-0.7-6.2-2.3l-17.8-14.9l45.8,38.9
					C390.8,433.9,391.3,440,387.8,444.1z"/>
			</g>
			<g>
				<path class="st35" d="M337.6,487.6c-2.5,0-4.9-0.8-7-2.5l-34.5-28.7c-4.6-3.9-5.3-10.7-1.4-15.4s10.7-5.2,15.4-1.4l34.5,28.7
					c4.6,3.9,5.3,10.7,1.4,15.4C343.8,486.3,340.7,487.6,337.6,487.6z"/>
			</g>
			<g>
				<path class="st35" d="M354.7,454.1c-2.7,0-5.4-1-7.6-2.9l-34.9-31c-4.7-4.2-5.2-11.5-1-16.2s11.5-5.2,16.2-1l34.9,31
					c4.7,4.2,5.2,11.5,1,16.2C361,452.8,357.8,454.1,354.7,454.1z"/>
			</g>
			<g>
				<path class="st35" d="M398.9,438.3c-2.6,0-5.1-0.9-7.3-2.6l-39.3-32.3c-4.9-4-5.6-11.3-1.6-16.2c4-4.9,11.3-5.6,16.2-1.6
					l39.3,32.3c4.9,4,5.6,11.3,1.6,16.2C405.5,436.8,402.2,438.3,398.9,438.3z"/>
			</g>
			<g>
				<path class="st35" d="M428,413c-2.6,0-5.1-0.9-7.3-2.6l-39.3-32.3c-4.9-4-5.6-11.3-1.6-16.2c4-4.9,11.3-5.6,16.2-1.6l39.3,32.3
					c4.9,4,5.6,11.3,1.6,16.2C434.6,411.6,431.3,413,428,413z"/>
			</g>
			<g>
				<path class="st4" d="M419.3,544.5c-3.4,3.7-19.3,9.5-20.8,8.3l-18.2-15.9L257,432.2c2.3-13.7,7.1-33.8,12.9-44.7L416.5,522
					c0.1,0.1,0.3,0.3,0.4,0.4C423.4,528.9,425.6,537.7,419.3,544.5z"/>
			</g>
		</g>
		<g>
			<path class="st19" d="M492.2,542.7c0.8-0.2,1.5-0.6,2-1.1L492.2,542.7z"/>
		</g>
	</g>
	<defs>
		<filter id="Adobe_OpacityMaskFilter_1_" filterUnits="userSpaceOnUse" x="174.7" y="279.2" width="367.1" height="328.3">
			<feFlood  style="flood-color:white;flood-opacity:1" result="back"/>
			<feBlend  in="SourceGraphic" in2="back" mode="normal"/>
		</filter>
	</defs>
	<mask maskUnits="userSpaceOnUse" x="174.7" y="279.2" width="367.1" height="328.3" id="SVGID_2_">
		<g class="st94">
			<g>
				<path class="st20" d="M500.1,576.5c-2.7,0-5.4-0.9-7.5-2.8L211,326.8c-4.7-4.2-5.2-11.4-1.1-16.1c4.2-4.7,11.4-5.2,16.1-1.1
					l281.6,246.9c4.7,4.2,5.2,11.4,1.1,16.1C506.4,575.2,503.3,576.5,500.1,576.5z"/>
			</g>
		</g>
	</mask>
	<g class="st29">
		<path class="st30" d="M511.5,607.5c-12.6,0-27.5-6.4-40.5-17.6L197.9,353.9c-23-19.9-29.9-47.1-16.1-63.2
			c5.8-6.7,14.1-10.8,23.6-11.5c11.9-0.9,24.6,3.8,34.8,12.6l19.2,16.8l-23.5,26.9l245,211.6l22.3-25.1l20,17.8
			c19.3,17.2,24.3,41.8,11.7,57.2c-4.9,5.9-12.1,9.6-20.3,10.3C513.5,607.4,512.5,607.5,511.5,607.5z"/>
	</g>
</g>
<g>
	<circle class="st64" cx="405.8" cy="139.3" r="6.6"/>
	<g class="st40">
		<path class="st47" d="M405.8,132.7c3.6,0,6.6,3,6.6,6.6s-3,6.6-6.6,6.6c-3.6,0-6.6-3-6.6-6.6S402.1,132.7,405.8,132.7L405.8,132.7
			z M405.8,121.3L405.8,121.3c-10,0-18,8.1-18,18c0,10,8.1,18,18,18c10,0,18-8.1,18-18S415.7,121.3,405.8,121.3L405.8,121.3z"/>
	</g>
	<g>
		<path class="st52" d="M405.8,132.7c3.6,0,6.6,3,6.6,6.6s-3,6.6-6.6,6.6c-3.6,0-6.6-3-6.6-6.6S402.1,132.7,405.8,132.7L405.8,132.7
			z M405.8,128.9L405.8,128.9c-5.7,0-10.4,4.7-10.4,10.4s4.7,10.4,10.4,10.4c5.7,0,10.4-4.7,10.4-10.4
			C416.2,133.6,411.5,128.9,405.8,128.9L405.8,128.9z"/>
	</g>
</g>
<g>
	<circle class="st64" cx="116.5" cy="630.7" r="5"/>
	<g class="st40">
		<path class="st47" d="M116.5,625.7c2.8,0,5,2.2,5,5s-2.2,5-5,5c-2.8,0-5-2.2-5-5S113.7,625.7,116.5,625.7L116.5,625.7z
			 M116.5,611.8L116.5,611.8c-10.4,0-18.9,8.5-18.9,18.9s8.5,18.9,18.9,18.9c10.4,0,18.9-8.5,18.9-18.9
			C135.4,620.3,126.9,611.8,116.5,611.8L116.5,611.8z"/>
	</g>
	<g>
		<path class="st52" d="M116.5,625.7c2.8,0,5,2.2,5,5s-2.2,5-5,5c-2.8,0-5-2.2-5-5S113.7,625.7,116.5,625.7L116.5,625.7z
			 M116.5,621.1L116.5,621.1c-5.3,0-9.6,4.3-9.6,9.6s4.3,9.6,9.6,9.6c5.3,0,9.6-4.3,9.6-9.6C126.1,625.4,121.8,621.1,116.5,621.1
			L116.5,621.1z"/>
	</g>
</g>
<g>
	<g>
		<path class="st80" d="M225.7,118.5c0,22.2-18,40.2-40.2,40.2c-16,0-29.9-9.4-36.3-23c-0.3-0.7-0.6-1.4-0.9-2.1
			c-1.3-3.3-2.2-6.8-2.7-10.4c0-0.3-0.1-0.5-0.1-0.7c-0.1-1.3-0.2-2.6-0.2-4c0-0.8,0-1.5,0.1-2.2l0.1-1.3c0.2-2,0.5-4,1-6
			c0.5-2.2,1.2-4.3,2.1-6.3l0.1-0.1c0.8-1.9,1.8-3.8,2.9-5.6c1.1-1.8,2.4-3.5,3.8-5c0,0,0.1-0.1,0.1-0.1c1.4-1.6,2.9-3.1,4.5-4.4
			c1.5-1.3,3.2-2.4,4.9-3.5c0.2-0.1,0.3-0.2,0.5-0.3c1.8-1.1,3.7-2,5.7-2.8h0c2.3-0.9,4.8-1.6,7.3-2.1h0c2.3-0.4,4.7-0.6,7.1-0.6
			c0.6,0,1.1,0,1.7,0c4.5,0.2,8.9,1.1,12.9,2.7C215,86.9,225.7,101.5,225.7,118.5z"/>
		<g class="st37">
			<path class="st88" d="M185.5,78.3c0.6,0,1.1,0,1.7,0c4.5,0.2,8.9,1.1,12.9,2.7c15,5.8,25.7,20.4,25.7,37.5
				c0,22.2-18,40.2-40.2,40.2c-16,0-29.9-9.4-36.3-23c-0.3-0.7-0.6-1.4-0.9-2.1c-1.3-3.3-2.2-6.8-2.7-10.4c0-0.3-0.1-0.5-0.1-0.7
				c-0.1-1.3-0.2-2.6-0.2-4c0-0.8,0-1.5,0.1-2.2l0.1-1.3c0.2-2,0.5-4,1-6c0.5-2.2,1.2-4.3,2.1-6.3l0.1-0.1c0.8-1.9,1.8-3.8,2.9-5.6
				c1.1-1.8,2.4-3.5,3.8-5c0,0,0.1-0.1,0.1-0.1c1.4-1.6,2.9-3.1,4.5-4.4c1.5-1.3,3.2-2.4,4.9-3.5c0.2-0.1,0.3-0.2,0.5-0.3
				c1.8-1.1,3.7-2,5.7-2.8h0c2.3-0.9,4.8-1.6,7.3-2.1h0C180.7,78.6,183.1,78.3,185.5,78.3L185.5,78.3z M185.5,53.2
				c-3,0-6.1,0.2-9.1,0.6h-0.3l-2.2,0.4c-2.4,0.4-4.7,1-7,1.7h-0.6l-4.4,1.7c-3.1,1.2-6.2,2.7-9.1,4.3c-0.4,0.2-0.7,0.4-0.8,0.5
				l-0.1,0l-0.1,0.1c-2.8,1.7-5.5,3.6-8,5.6l0,0l0,0c-2.5,2.1-4.9,4.4-7,6.8c-0.3,0.3-0.5,0.5-0.7,0.8c-2.1,2.4-4.1,5.1-5.8,7.8
				c-1.8,2.8-3.4,5.9-4.8,9l0,0l0,0l-0.1,0.1c-1.4,3.3-2.5,6.7-3.4,10.2c-0.8,3.2-1.3,6.5-1.6,9.8l0,0.2l0,0.2l-0.1,1.3l0,0.2l0,0.2
				c-0.1,1.2-0.1,2.4-0.1,3.7c0,2.1,0.1,4.2,0.3,6.2c0,0.5,0.1,1,0.2,1.5c0.7,5.8,2.1,11.5,4.3,16.8c0.5,1.3,1,2.4,1.6,3.5
				c5.2,10.9,13.4,20.2,23.6,26.8c10.5,6.8,22.8,10.4,35.4,10.4c36,0,65.3-29.3,65.3-65.3c0-13.4-4.1-26.3-11.7-37.3
				c-7.5-10.7-17.8-18.9-30-23.6c-6.7-2.6-13.7-4-20.9-4.3C187.3,53.2,186.4,53.2,185.5,53.2L185.5,53.2z"/>
		</g>
		<path class="st87" d="M185.5,78.3c0.6,0,1.1,0,1.7,0c4.5,0.2,8.9,1.1,12.9,2.7c15,5.8,25.7,20.4,25.7,37.5
			c0,22.2-18,40.2-40.2,40.2c-16,0-29.9-9.4-36.3-23c-0.3-0.7-0.6-1.4-0.9-2.1c-1.3-3.3-2.2-6.8-2.7-10.4c0-0.3-0.1-0.5-0.1-0.7
			c-0.1-1.3-0.2-2.6-0.2-4c0-0.8,0-1.5,0.1-2.2l0.1-1.3c0.2-2,0.5-4,1-6c0.5-2.2,1.2-4.3,2.1-6.3l0.1-0.1c0.8-1.9,1.8-3.8,2.9-5.6
			c1.1-1.8,2.4-3.5,3.8-5c0,0,0.1-0.1,0.1-0.1c1.4-1.6,2.9-3.1,4.5-4.4c1.5-1.3,3.2-2.4,4.9-3.5c0.2-0.1,0.3-0.2,0.5-0.3
			c1.8-1.1,3.7-2,5.7-2.8h0c2.3-0.9,4.8-1.6,7.3-2.1h0C180.7,78.6,183.1,78.3,185.5,78.3L185.5,78.3z M185.5,68.9
			c-2.6,0-5.3,0.2-7.9,0.6h0l-0.8,0.1c-2.5,0.4-5,1.1-7.4,1.9h-0.1l-1.6,0.6c-2.4,0.9-4.7,2-7,3.3c-0.2,0.1-0.4,0.2-0.5,0.3l-0.1,0
			l0,0l-0.1,0c-2.1,1.3-4.1,2.7-6.1,4.3c-2,1.6-3.8,3.4-5.5,5.3c-0.1,0.1-0.2,0.3-0.4,0.4c-1.6,1.9-3.2,3.9-4.5,6.1
			c-1.4,2.1-2.6,4.5-3.6,6.9l-0.1,0.2c-1.1,2.5-1.9,5.1-2.6,7.8c-0.6,2.4-1,4.9-1.2,7.4l0,0.1l0,0.1l-0.1,1.3l0,0.1l0,0.1
			c-0.1,0.9-0.1,1.8-0.1,2.8c0,1.6,0.1,3.2,0.2,4.8c0,0.3,0.1,0.7,0.1,1c0.5,4.4,1.6,8.7,3.3,12.8c0.4,1,0.8,1.8,1.2,2.6
			c8.2,17.2,25.8,28.3,44.8,28.3c27.4,0,49.6-22.3,49.6-49.6c0-10.2-3.1-20-8.9-28.4c-5.7-8.1-13.6-14.3-22.8-17.9
			c-5.1-2-10.4-3.1-15.9-3.3C186.9,68.9,186.2,68.9,185.5,68.9L185.5,68.9z"/>
	</g>
	<g>
		<path class="st74" d="M148.5,102.8c-0.9,2-1.6,4.1-2.1,6.3c-0.5,1.9-0.8,3.9-1,6l-0.1,1.3l14.1,11.8l1.9,1.6c1.2,1,2.6,1.5,4,1.5
			c1.8,0,3.6-0.8,4.8-2.3c2.2-2.7,1.9-6.6-0.8-8.8l-9.4-8.4l-0.6-0.6l-10.9-8.4L148.5,102.8z"/>
	</g>
	<g>
		<path class="st74" d="M192.2,98.7c-1.2,1.5-3,2.3-4.8,2.3c-0.3,0-0.5,0-0.8-0.1c-1.1-0.1-2.3-0.6-3.2-1.4l-18.5-15.4
			c0.2-0.1,0.3-0.2,0.5-0.3c1.8-1.1,3.7-2,5.7-2.8h0c2.3-0.9,4.8-1.6,7.3-2.1h0c0,0,0,0,0.1,0l15.7,10
			C196.7,91.2,194.4,96,192.2,98.7z"/>
	</g>
	<g>
		<path class="st74" d="M145.5,115l12,10c1,0.8,1.7,1.9,2,3c0.6,1.9,0.2,4.1-1.2,5.8c-1.2,1.5-3,2.3-4.8,2.3c-1.4,0-2.8-0.5-4-1.5
			l-1.2-1c-1.3-3.3-2.2-6.8-2.7-10.4c-0.2-1.6-0.3-3.1-0.3-4.7c0-0.8,0-1.5,0.1-2.2L145.5,115z"/>
	</g>
	<g>
		<path class="st80" d="M176.3,150.2c-1.2,1.5-3,2.3-4.8,2.3c-1.4,0-2.8-0.5-4-1.5l-18.3-15.2c-0.3-0.7-0.6-1.4-0.9-2.1
			c-1.3-3.3-2.2-6.8-2.7-10.4c0-0.3-0.1-0.5-0.1-0.7c2.3-1.7,5.5-1.6,7.7,0.3l22.3,18.6C178.2,143.6,178.5,147.5,176.3,150.2z"/>
	</g>
	<g>
		<path class="st74" d="M210,96.7c-1.2,1.5-2.9,2.2-4.7,2.2c-1.3,0-2.6-0.4-3.7-1.3L178.4,79c0,0,0,0-0.1,0c2.3-0.4,4.7-0.6,7.1-0.6
			c0.6,0,1.1,0,1.7,0c4.5,0.2,8.9,1.1,12.9,2.7l9.1,7.3C211.7,90.4,212.1,94.2,210,96.7z"/>
	</g>
	<g>
		<path class="st74" d="M203.2,114.3l-16.6-13.4l-21.3-17.1c-0.2,0.1-0.3,0.2-0.5,0.3c-1.7,1-3.4,2.2-4.9,3.5
			c-1.6,1.4-3.1,2.8-4.5,4.4l0.5,0.4l-0.6-0.3c-1.4,1.6-2.6,3.3-3.8,5c-1.1,1.8-2.1,3.6-2.9,5.6l-0.1,0.1l9,7.5
			c0.3,0.3,0.7,0.5,1.1,0.7h0c0.9,0.5,1.9,0.7,2.9,0.7c1.8,0,3.6-0.8,4.8-2.3c1.2-1.5,2.5-3.9,3-6.3l25.9,20.8
			c1.2,0.9,2.5,1.4,3.9,1.4c1.8,0,3.7-0.8,4.9-2.3C206.4,120.4,206,116.4,203.2,114.3z"/>
	</g>
	<path class="st77" d="M184.6,91.2l25.4,20.9L184.6,91.2z"/>
	<path class="st77" d="M163.9,106.6l17.2,14.9L163.9,106.6z"/>
</g>
<g>
	<g>
		<g>
			<circle class="st31" cx="602.8" cy="185" r="0.9"/>
		</g>
	</g>
	<circle class="st90" cx="572.5" cy="169.6" r="0.9"/>
	<g>
		<path class="st44" d="M689.6,101.4c-8.2-3.1-17-4.7-26.2-4.7c-12,0-23.3,2.8-33.3,7.8c0,0-0.4,0.2-0.5,0.3
			c-8.6,4.4-16.3,10.4-22.6,17.6c0,0,0,0,0,0c-11.5,13.1-18.4,30.3-18.4,49.2c0,2.6,0.1,5.1,0.4,7.6v0c0,0.1,0,0.3,0,0.4
			c0.9,8.7,3.3,16.9,6.9,24.4c12.1,25.1,37.8,42.4,67.5,42.4c41.3,0,74.8-33.5,74.8-74.8C738.2,139.4,718,112,689.6,101.4z"/>
		<g class="st39">
			<path class="st0" d="M663.4,96.6c9.2,0,18.1,1.7,26.2,4.7c28.4,10.6,48.6,38,48.6,70.1c0,41.3-33.5,74.8-74.8,74.8
				c-29.7,0-55.4-17.3-67.5-42.4c-3.6-7.5-6-15.7-6.9-24.4c0-0.1,0-0.3,0-0.4v0c-0.3-2.5-0.4-5-0.4-7.6c0-18.8,6.9-36,18.4-49.2
				c0,0,0,0,0,0c6.3-7.2,13.9-13.2,22.6-17.6c0.2-0.1,0.5-0.3,0.5-0.3C640.1,99.5,651.4,96.6,663.4,96.6L663.4,96.6z M663.4,53.6
				c-18.2,0-36.3,4.3-52.5,12.3l-0.1,0l0,0c0,0-0.4,0.2-0.7,0.4l0,0c-13.4,6.8-25.2,15.9-35.1,27.2c-0.1,0.2-0.3,0.3-0.4,0.5l0,0
				c-18.7,21.5-29,48.9-29,77.4c0,3.2,0.1,6.4,0.4,9.5v0.3l0.2,2.3l0,0.1l0,0.4c1.4,13.4,5.1,26.4,10.9,38.5
				c9.5,19.7,24.2,36.4,42.7,48.2c19,12.2,41,18.6,63.6,18.6c31.5,0,61.1-12.3,83.3-34.5c22.3-22.3,34.5-51.9,34.5-83.3
				c0-24.5-7.4-48-21.5-67.9c-13.7-19.5-32.8-34.2-55-42.5C691.5,56.1,677.6,53.6,663.4,53.6L663.4,53.6z"/>
		</g>
		<g class="st42">
			<path class="st0" d="M663.4,96.6c9.2,0,18.1,1.7,26.2,4.7c28.4,10.6,48.6,38,48.6,70.1c0,41.3-33.5,74.8-74.8,74.8
				c-29.7,0-55.4-17.3-67.5-42.4c-3.6-7.5-6-15.7-6.9-24.4c0-0.1,0-0.3,0-0.4v0c-0.3-2.5-0.4-5-0.4-7.6c0-18.8,6.9-36,18.4-49.2
				c0,0,0,0,0,0c6.3-7.2,13.9-13.2,22.6-17.6c0.2-0.1,0.5-0.3,0.5-0.3C640.1,99.5,651.4,96.6,663.4,96.6L663.4,96.6z M663.4,84
				c-13.7,0-26.8,3.1-39,9.1c0,0-0.4,0.2-0.7,0.3c-9.9,5-18.7,11.9-26.1,20.3c-0.1,0.1-0.3,0.3-0.4,0.4
				c-13.8,15.9-21.4,36.3-21.4,57.4c0,2.8,0.1,5.5,0.4,8.2v0.1l0.1,0.7l0,0.2l0,0.2c1.1,10,3.8,19.6,8.1,28.6
				c7,14.6,18,27,31.7,35.8c14.1,9,30.4,13.8,47.2,13.8c48.3,0,87.5-39.3,87.5-87.5c0-18.2-5.5-35.6-16-50.4
				c-10.2-14.5-24.3-25.4-40.9-31.6C684.3,85.8,673.9,84,663.4,84L663.4,84z"/>
		</g>
	</g>
	<path class="st27" d="M658.8,193.7l-2.8-2.4L658.8,193.7z"/>
	<path class="st48" d="M611.3,198l-2.3-2c-3.1-2.7-7.8-2.4-10.5,0.7c-2.3,2.6-2.4,6.3-0.5,9l-2.1-1.8c-3.6-7.5-6-15.7-6.9-24.4
		c1.2,0.2,2.4,0.8,3.5,1.7l17.6,15.4C610.6,197,611,197.5,611.3,198z"/>
	<g>
		<path class="st53" d="M646.2,183.1c-1.4,1.6-3.4,2.5-5.4,2.5c-1.6,0-3.2-0.6-4.6-1.7l-2.1-1.8c0.7,2.2,0.2,4.7-1.4,6.6
			c-1.4,1.6-3.4,2.5-5.4,2.5c-1.4,0-2.7-0.4-3.9-1.2l4.6,3.9c3,2.5,3.3,7,0.8,9.9c-1.4,1.6-3.4,2.5-5.4,2.5c-1.6,0-3.3-0.6-4.6-1.7
			l-30-25.6v0c-0.3-2.5-0.4-5-0.4-7.6c0-18.8,6.9-36,18.4-49.2l33.4,28.4c3,2.5,3.3,7,0.8,9.9c-1.4,1.6-3.4,2.5-5.4,2.5
			c-1,0-2-0.2-3-0.7l12.5,10.7C648.3,175.7,648.7,180.1,646.2,183.1z"/>
		<path class="st53" d="M706.6,124.3c-1.3,1.6-3.2,2.4-5.1,2.4c-1.5,0-3-0.5-4.3-1.6l-6.1-5.1c1.3,2.9,0.9,6.3-1.2,8.9
			c-1.7,2-4.1,3-6.5,3c-0.1,0-0.1,0-0.2,0l6.8,5.7c2.8,2.4,3.2,6.6,0.9,9.4c-1.3,1.6-3.2,2.4-5.1,2.4c-1.5,0-3-0.5-4.3-1.6
			l-49.7-41.5c-0.7-0.6-1.2-1.3-1.6-2c0,0,0,0,0,0c10-5,21.3-7.8,33.3-7.8c9.2,0,18.1,1.7,26.2,4.7l16.2,13.5
			C708.6,117.2,709,121.5,706.6,124.3z"/>
		<path class="st53" d="M682.9,177.5c-1.4,1.6-3.4,2.5-5.4,2.5c-1.6,0-3.2-0.5-4.6-1.7l-65.9-56c6.3-7.2,13.9-13.2,22.6-17.6
			l41.2,34.6c3,2.5,3.4,7,0.9,9.9c-1.4,1.7-3.4,2.5-5.4,2.5c-1.6,0-3.2-0.5-4.5-1.7l-12.9-10.8l33.3,28.3
			C685,170,685.4,174.5,682.9,177.5z"/>
	</g>
	<path class="st70" d="M622.6,181l25,20.9L622.6,181z"/>
	<path class="st5" d="M633.4,153.9l25,20.9L633.4,153.9z"/>
	<path class="st5" d="M662.3,141.5l28.5,23.4L662.3,141.5z"/>
	<path class="st5" d="M683.5,123.1l28.5,23.4L683.5,123.1z"/>
</g>
<g>
	<circle class="st25" cx="526.1" cy="228.5" r="12.8"/>
	<g class="st38">
		<path class="st18" d="M526.1,215.7c7.1,0,12.8,5.7,12.8,12.8s-5.7,12.8-12.8,12.8c-7.1,0-12.8-5.7-12.8-12.8
			C513.3,221.4,519,215.7,526.1,215.7L526.1,215.7z M526.1,193.5L526.1,193.5c-19.3,0-35,15.7-35,35c0,19.3,15.7,35,35,35
			c19.3,0,35-15.7,35-35C561.1,209.2,545.4,193.5,526.1,193.5L526.1,193.5z"/>
	</g>
	<g class="st38">
		<path class="st81" d="M526.1,215.7c7.1,0,12.8,5.7,12.8,12.8s-5.7,12.8-12.8,12.8c-7.1,0-12.8-5.7-12.8-12.8
			C513.3,221.4,519,215.7,526.1,215.7L526.1,215.7z M526.1,208.3L526.1,208.3c-11.1,0-20.2,9.1-20.2,20.2s9.1,20.2,20.2,20.2
			c11.1,0,20.2-9.1,20.2-20.2C546.3,217.4,537.2,208.3,526.1,208.3L526.1,208.3z"/>
	</g>
</g>
<g>
	<circle class="st25" cx="825.9" cy="351.6" r="10.6"/>
	<g class="st38">
		<path class="st18" d="M825.9,341c5.8,0,10.6,4.7,10.6,10.6c0,5.8-4.7,10.6-10.6,10.6s-10.6-4.7-10.6-10.6S820,341,825.9,341
			L825.9,341z M825.9,312.2L825.9,312.2c-21.7,0-39.4,17.7-39.4,39.4c0,21.7,17.7,39.4,39.4,39.4c21.7,0,39.4-17.7,39.4-39.4
			S847.6,312.2,825.9,312.2L825.9,312.2z"/>
	</g>
	<g class="st38">
		<path class="st81" d="M825.9,341c5.8,0,10.6,4.7,10.6,10.6c0,5.8-4.7,10.6-10.6,10.6s-10.6-4.7-10.6-10.6S820,341,825.9,341
			L825.9,341z M825.9,333.6L825.9,333.6c-9.9,0-18,8.1-18,18s8.1,18,18,18c9.9,0,18-8.1,18-18C843.8,341.7,835.8,333.6,825.9,333.6
			L825.9,333.6z"/>
	</g>
</g>
<g>
	<g>
		<g class="st36">
			<g>
				<path class="st33" d="M434.8,906c-1-1-2-2-2.9-3.1h314.5c5.6-6.9,10.8-14.2,15.5-21.8c5.8-9.3,10.9-19.1,15.2-29.3
					c10.9-25.8,17-54.1,17-83.9c0-72.8-36.2-137.2-91.6-176c-9.5-6.7-19.7-12.7-30.3-17.8c-9.7-4.7-19.8-8.6-30.2-11.8
					c-12.8-3.9-26.1-6.6-39.8-8.1c-0.4,0-0.8-0.1-1.2-0.1h0c-7.2-0.7-14.4-1.1-21.8-1.1c-53.1,0-101.7,19.3-139.1,51.1
					c-0.1,0.1-0.2,0.1-0.3,0.2c-0.6,0.5-1.2,1-1.8,1.5c0,0-0.1,0.1-0.1,0.1c-18.3,15.9-33.8,34.9-45.8,56.1
					c-1.6,2.9-3.2,5.8-4.7,8.7c-0.3,0.5-0.8,1.5-0.8,1.5c-14.3,28.8-22.4,61.3-22.4,95.6c0,26.5,4.8,51.9,13.6,75.3
					c3,8.1,6.6,16,10.5,23.6c6.7,12.8,14.6,24.9,23.6,36.1h-9c0,0,0.1,0.1,0.1,0.1L434.8,906z M434.8,906c-1-1-2-2-2.9-3.1h421.2
					c2.6-5.3-4.9-10.7-2.6-16.2c15.9-37.7,27.3-75.5,27.3-116.6c0-58.6-10-117.8-41.5-167c-30.6-47.8-73.8-86-124.9-110.5
					c-3-1.4-5.9-2.8-8.9-4.1c-15.9-7-32.3-12.7-49.1-16.9c-13.6-3.4-27.5-5.9-41.6-7.4l0,0h0l-1-0.1l-0.3,0l-4.7-0.5h-0.5
					c-8.6-0.7-17.3-1.1-26-1.1c-36.9,0-73.1,6.7-107.1,19.4c-34,12.7-65.7,31.5-93.5,55.7c-0.4,0.4-0.9,0.8-1.3,1.1
					c-29.2,25.7-52.9,56.3-70.5,90.9c-0.2,0.5-0.5,1-0.7,1.4c-0.2,0.4-0.3,0.7-0.3,0.7l-0.1,0.2c-21.1,42.5-31.9,88.2-31.9,135.9
					c0,36.8,6.5,72.8,19.3,107c3.6,9.6,7.6,18.9,12.1,28.1h96.5l1.4,0.1L434.8,906z"/>
			</g>
		</g>
		<g class="st39">
			<g>
				<path class="st86" d="M433.6,613.3c37.8-32.9,87.1-52.9,141.1-52.9c7.4,0,14.6,0.4,21.8,1.1h0c0.4,0,0.8,0.1,1.2,0.1
					c15.3,1.6,30.1,4.9,44.3,9.5c8.9,2.9,17.5,6.4,25.8,10.4c0.9,0.4,1.9,0.9,2.8,1.4c11.2,5.6,21.9,12.2,31.9,19.6
					c34.6,25.6,61.3,61.4,75.5,102.9c0,0.1,0.1,0.2,0.1,0.4c7.5,21.8,11.5,45.2,11.5,69.5c0,26.9-4.9,52.7-14,76.4
					c-3.9,10.2-8.5,20-13.8,29.3c-4.3,7.6-9,14.9-14.2,21.8h39.1c2.3-3.9,4.5-7.8,6.7-11.8c3.3-6.3,6.4-12.8,9.2-19.4
					c12.9-30.5,19.5-62.9,19.5-96.3c0-47.5-13.5-93.6-39.1-133.5c-20.6-32.1-48.2-58.9-80.6-78.5c-6.7-4-13.6-7.8-20.6-11.2
					C669,546,655.7,541,642,537.1c-13.3-3.8-27-6.4-40.8-7.9l-0.7-0.1l-0.5,0l-1.7-0.2h-0.1c-7.7-0.7-15.5-1.1-23.4-1.1
					c-59.6,0-117.2,21.5-162.2,60.6c-0.4,0.3-0.8,0.7-1.2,1c-23.8,20.9-43.1,45.8-57.4,73.9c-0.4,0.7-0.9,1.8-0.9,1.8
					c-17.1,34.4-25.8,71.4-25.8,110.1c0,29.9,5.3,59,15.6,86.7c5.4,14.3,11.9,27.9,19.7,40.8h39.1c-11.7-15.9-21.3-33.4-28.3-52.2
					c-1.2-3.1-2.3-6.2-3.3-9.4c0-0.1-0.1-0.2-0.1-0.3c-6.6-20.7-10.2-42.8-10.2-65.7c0-34.3,8.1-66.8,22.4-95.6c0,0,0.5-1,0.8-1.5
					c2.8-5.5,5.9-11,9.1-16.2c11.3-18.2,25.3-34.5,41.3-48.6C433.5,613.3,433.6,613.3,433.6,613.3z"/>
			</g>
		</g>
		<g>
			<path class="st50" d="M403,902.9h341.4c2.1-2.7,4.1-5.5,6-8.3c1-1.4,1.9-2.8,2.9-4.3c0.5-0.7,0.9-1.4,1.4-2.2
				c0.3-0.5,0.7-1,1-1.5c0.3-0.5,0.6-1,1-1.5c0.1-0.2,0.2-0.3,0.3-0.5c0.6-1,1.2-2,1.8-3.1c0.7-1.1,1.3-2.2,2-3.4
				c0.6-1.1,1.3-2.3,1.9-3.4c0.6-1.1,1.2-2.1,1.7-3.2c0.1-0.1,0.2-0.3,0.2-0.5c0.6-1.1,1.1-2.2,1.7-3.2c0.5-1,1-2,1.4-2.9
				c0.5-1,0.9-2,1.4-2.9c0.5-1,0.9-2,1.3-3c0.4-1,0.9-2,1.3-3c0.3-0.7,0.6-1.4,0.9-2.1s0.6-1.4,0.9-2.1c0.3-0.7,0.6-1.5,0.9-2.2
				c0.3-0.7,0.6-1.5,0.8-2.2c0.3-0.7,0.5-1.4,0.8-2.1c0-0.1,0.1-0.2,0.1-0.2c0.3-0.7,0.5-1.4,0.7-2.1c0.3-1,0.7-2,1-2.9
				c0.2-0.5,0.3-1,0.5-1.6c0.5-1.5,1-3,1.4-4.5c0.3-0.9,0.5-1.7,0.8-2.6c0.5-1.7,0.9-3.4,1.4-5.1c0.9-3.4,1.7-6.9,2.4-10.4
				c0.4-1.8,0.7-3.5,1-5.3c0.3-1.8,0.6-3.5,0.9-5.3c0.3-1.8,0.5-3.6,0.8-5.4c0.1-0.7,0.2-1.4,0.3-2.1c0-0.4,0.1-0.9,0.2-1.3
				c0.1-1.1,0.2-2.2,0.3-3.3c0,0,0-0.1,0-0.1c0.1-0.9,0.2-1.7,0.2-2.6c0-0.4,0.1-0.8,0.1-1.3c0.1-1,0.1-1.9,0.2-2.9
				c0-0.6,0.1-1.2,0.1-1.7c0-0.6,0.1-1.1,0.1-1.7c0,0,0,0,0,0c0-0.7,0.1-1.3,0.1-1.9c0-0.3,0-0.6,0-0.9c0-0.4,0-0.8,0-1.2
				c0-0.8,0.1-1.5,0.1-2.3v-0.2c0-1.3,0-2.6,0-4c0-1.3,0-2.7,0-4c0-1.3-0.1-2.7-0.1-4c0-1.3-0.1-2.6-0.2-4c-0.1-1.3-0.2-2.6-0.3-3.9
				c-0.1-1.3-0.2-2.6-0.3-3.9c-0.1-1.3-0.2-2.6-0.4-3.8c0,0,0,0,0-0.1c-0.1-1.3-0.3-2.6-0.5-3.9c-0.2-1.2-0.3-2.3-0.5-3.5
				c0-0.3-0.1-0.7-0.1-1c-0.2-1-0.3-2-0.5-3c-0.2-1.2-0.4-2.3-0.6-3.5c-0.2-0.9-0.3-1.8-0.5-2.7c0-0.1,0-0.3-0.1-0.4
				c0-0.1,0-0.1,0-0.2c-0.1-0.7-0.3-1.5-0.5-2.2c-0.2-0.8-0.3-1.6-0.5-2.4c0-0.2-0.1-0.4-0.1-0.5c-0.2-1-0.4-1.9-0.7-2.9
				c-0.1-0.4-0.2-0.9-0.3-1.3c-0.1-0.6-0.3-1.1-0.4-1.6c-0.2-0.8-0.4-1.7-0.7-2.5c-0.2-0.6-0.3-1.3-0.5-2c-0.1-0.4-0.2-0.7-0.3-1.1
				c-0.1-0.5-0.3-1-0.5-1.6c-0.2-0.8-0.4-1.6-0.7-2.3c-0.1-0.3-0.2-0.7-0.3-1c-0.3-1-0.6-2.1-1-3.1c0-0.1-0.1-0.2-0.1-0.3
				c0-0.1-0.1-0.2-0.1-0.4c-0.4-1.1-0.8-2.3-1.2-3.4c0-0.2-0.1-0.3-0.2-0.5c-0.3-1-0.7-2-1.1-3c0,0,0-0.1-0.1-0.2
				c-0.1-0.3-0.2-0.6-0.3-0.9c0,0,0,0,0,0c-0.3-0.9-0.7-1.8-1-2.7c-0.1-0.4-0.3-0.7-0.4-1.1c-0.2-0.5-0.3-0.9-0.5-1.4
				c-0.3-0.7-0.6-1.5-0.9-2.2c-0.3-0.6-0.5-1.2-0.8-1.8c-0.2-0.5-0.4-1-0.6-1.5c-0.3-0.7-0.6-1.4-0.9-2.1c-0.1-0.2-0.1-0.3-0.2-0.5
				c-0.4-0.8-0.7-1.6-1.1-2.5c-0.1-0.2-0.2-0.4-0.3-0.5c-0.4-0.8-0.8-1.6-1.1-2.4c-0.1-0.1-0.1-0.2-0.2-0.4c-0.3-0.7-0.7-1.4-1-2.1
				c-0.1-0.2-0.2-0.4-0.3-0.7c-0.4-0.8-0.8-1.5-1.2-2.3c-0.2-0.4-0.5-0.9-0.7-1.3c-0.3-0.5-0.5-1-0.8-1.5c-0.2-0.4-0.4-0.8-0.6-1.2
				c-0.2-0.4-0.4-0.8-0.7-1.2c-0.6-1-1.1-2-1.7-3c-0.3-0.5-0.6-1-0.9-1.5c-0.1-0.1-0.2-0.3-0.3-0.4c-0.2-0.3-0.4-0.7-0.6-1
				c-0.3-0.5-0.6-1-0.9-1.4c0-0.1-0.1-0.2-0.2-0.3c-0.4-0.7-0.9-1.5-1.4-2.2c-0.3-0.5-0.6-1.1-1-1.6c-0.2-0.3-0.3-0.6-0.5-0.8
				c-0.4-0.7-0.9-1.3-1.3-2c-0.1-0.1-0.1-0.2-0.2-0.2c-0.6-0.9-1.2-1.8-1.9-2.8c-0.3-0.4-0.5-0.8-0.8-1.2c-0.7-0.9-1.3-1.9-2-2.8
				c-0.4-0.6-0.8-1.1-1.2-1.6c-0.4-0.5-0.8-1.1-1.2-1.6c-0.7-0.9-1.4-1.9-2.1-2.8c-0.3-0.4-0.7-0.8-1-1.3c-0.6-0.8-1.3-1.6-1.9-2.4
				c0,0,0-0.1-0.1-0.1c-0.7-0.9-1.4-1.8-2.2-2.6c-0.3-0.3-0.5-0.7-0.8-1c-0.3-0.3-0.6-0.7-0.8-1c-0.3-0.3-0.6-0.7-0.9-1
				c-0.3-0.3-0.5-0.6-0.8-0.9c-0.4-0.5-0.8-0.9-1.2-1.4c-0.4-0.5-0.8-0.9-1.2-1.4c-0.4-0.5-0.8-0.9-1.3-1.4c-0.5-0.5-1-1.1-1.5-1.6
				c-0.9-1-1.8-2-2.8-2.9c-1-1-1.9-1.9-2.8-2.9c0,0-0.1-0.1-0.1-0.1c-2.2-2.2-4.4-4.3-6.7-6.3c-0.8-0.7-1.5-1.4-2.3-2
				c-0.5-0.5-1-0.9-1.5-1.3c-0.5-0.4-1-0.9-1.6-1.3c-1-0.9-2.1-1.8-3.2-2.6c-0.5-0.4-1-0.8-1.6-1.3c-0.5-0.4-1.1-0.8-1.6-1.3
				c0,0-0.1,0-0.1-0.1l-1.4-1.1c-0.6-0.5-1.2-0.9-1.8-1.4c-0.3-0.2-0.6-0.4-0.9-0.7c-0.3-0.2-0.6-0.5-0.9-0.7
				c-0.2-0.2-0.5-0.4-0.7-0.5c-0.6-0.4-1.1-0.8-1.7-1.2c-0.7-0.5-1.4-1-2.1-1.5c-0.4-0.3-0.7-0.5-1.1-0.8c-0.7-0.5-1.4-0.9-2-1.4
				l-0.5-0.4c-1-0.6-1.9-1.3-2.9-1.9c-1-0.7-2.1-1.3-3.1-2c-1.1-0.7-2.1-1.3-3.2-1.9c-0.9-0.5-1.7-1-2.6-1.5c-0.3-0.2-0.6-0.4-1-0.6
				c-1-0.6-1.9-1.1-2.9-1.6c-0.9-0.5-1.7-0.9-2.6-1.4c-0.1-0.1-0.2-0.1-0.4-0.2c-0.6-0.3-1.2-0.6-1.8-0.9c-0.7-0.4-1.4-0.7-2.1-1.1
				c-1.1-0.5-2.1-1-3.2-1.5c-8-3.8-16.3-7.2-24.8-10.1c-14.5-4.8-29.6-8.2-45.3-9.8c-0.4,0-0.8-0.1-1.2-0.1h0
				c-7.2-0.7-14.4-1.1-21.8-1.1c-50.5,0-97,17.4-133.7,46.6c-0.1,0.1-0.2,0.1-0.3,0.2c-2.4,2-4.9,4-7.2,6c0,0-0.1,0.1-0.1,0.1
				c-20.7,18.1-37.9,40-50.5,64.8c-0.3,0.5-0.8,1.5-0.8,1.5c-14.3,28.8-22.4,61.3-22.4,95.6c0,24,3.9,47.1,11.2,68.7
				c0,0.1,0.1,0.2,0.1,0.3c0.7,2.1,1.5,4.3,2.3,6.4c0.5,1.3,0.9,2.5,1.4,3.7c0.1,0.3,0.3,0.7,0.4,1c0.2,0.6,0.5,1.2,0.7,1.8
				c0.2,0.4,0.3,0.9,0.5,1.3c0.4,0.9,0.8,1.8,1.2,2.8c0.1,0.2,0.2,0.3,0.2,0.5c0.2,0.5,0.4,1,0.7,1.5c0.3,0.7,0.6,1.4,1,2.1
				c0.4,0.9,0.9,1.8,1.3,2.7c0.7,1.5,1.4,3,2.2,4.5c0.6,1.2,1.2,2.3,1.8,3.5c0.6,1.2,1.3,2.3,1.9,3.5c0.5,0.8,0.9,1.6,1.4,2.4
				c0.1,0.2,0.3,0.5,0.4,0.7c0.1,0.1,0.1,0.3,0.2,0.4c0.6,1,1.2,2.1,1.8,3.1c0.1,0.1,0.1,0.2,0.2,0.3c0.7,1.1,1.3,2.2,2,3.3
				c0.4,0.6,0.7,1.1,1.1,1.7c0.3,0.5,0.7,1.1,1.1,1.6c0.7,1.1,1.4,2.2,2.2,3.3c0.7,1.1,1.5,2.2,2.3,3.2c0.8,1.1,1.5,2.1,2.3,3.2
				c0.7,1,1.4,1.9,2.1,2.8c0,0,0,0,0,0C402.9,902.7,403,902.8,403,902.9z"/>
		</g>
		<g class="st42">
			<g>
				<path class="st57" d="M617.9,584.7l-20.7-24.3c0.8,3,2.3,5.8,4.5,8.2l13.5,15.4C616,584.2,617,584.4,617.9,584.7z M397.6,694
					c0-0.1,0.1-0.1,0.1-0.2L382,675.2c-0.3,0.5-0.8,1.5-0.8,1.5c0,0,0,0,0,0c2.2,1.1,4.2,2.7,5.8,4.7L397.6,694z M432.5,610.4
					l14.3,16.9c0,0,0.1-0.1,0.1-0.1l-14.4-16.9C432.6,610.3,432.5,610.3,432.5,610.4z M617.9,584.7l-20.7-24.3
					c0.8,3,2.3,5.8,4.5,8.2l13.5,15.4C616,584.2,617,584.4,617.9,584.7z M597.2,560.4c-0.2-0.6-0.3-1.1-0.4-1.7
					c-0.4,0-0.8-0.1-1.2-0.1L597.2,560.4z M403,902.9h28.9c-0.7-0.8-1.4-1.6-2.1-2.3c-6.7,1.4-14-0.9-18.7-6.5l-22.7-27.2l-16-19.1
					c0.5,1.3,0.9,2.5,1.4,3.7c0.1,0.3,0.3,0.7,0.4,1c0.2,0.6,0.5,1.2,0.7,1.8c0.2,0.4,0.3,0.9,0.5,1.3c0.4,0.9,0.8,1.8,1.2,2.8
					c0.1,0.2,0.2,0.3,0.2,0.5c0.2,0.5,0.4,1,0.7,1.5c0.3,0.7,0.6,1.4,1,2.1c0.4,0.9,0.9,1.8,1.3,2.7c0.7,1.5,1.4,3,2.2,4.5
					c0.6,1.2,1.2,2.3,1.8,3.5c0.6,1.2,1.3,2.3,1.9,3.5c0.5,0.8,0.9,1.6,1.4,2.4c0.1,0.2,0.3,0.5,0.4,0.7c0.1,0.1,0.1,0.3,0.2,0.4
					c0.6,1,1.2,2.1,1.8,3.1c0.1,0.1,0.1,0.2,0.2,0.3c0.7,1.1,1.3,2.2,2,3.3c0.4,0.6,0.7,1.1,1.1,1.7c0.3,0.5,0.7,1.1,1.1,1.6
					c0.7,1.1,1.4,2.2,2.2,3.3c0.7,1.1,1.5,2.2,2.3,3.2c0.8,1.1,1.5,2.1,2.3,3.2c0.7,1,1.4,1.9,2.1,2.8c0,0,0,0,0,0
					C402.9,902.7,403,902.8,403,902.9z M715.6,902.9h28.9c2.1-2.7,4.1-5.5,6-8.3c1-1.4,1.9-2.8,2.9-4.3c0.5-0.7,0.9-1.4,1.4-2.2
					c0.3-0.5,0.7-1,1-1.5c0.3-0.5,0.6-1,1-1.5c0.1-0.2,0.2-0.3,0.3-0.5c0.6-1,1.2-2,1.8-3.1c0.7-1.1,1.3-2.2,2-3.4
					c0.6-1.1,1.3-2.3,1.9-3.4c0.6-1.1,1.2-2.1,1.7-3.2c0.1-0.1,0.2-0.3,0.2-0.5c0.6-1.1,1.1-2.2,1.7-3.2c0.5-1,1-2,1.4-2.9
					c0.5-1,0.9-2,1.4-2.9c0.5-1,0.9-2,1.3-3c0.4-1,0.9-2,1.3-3c0.3-0.7,0.6-1.4,0.9-2.1s0.6-1.4,0.9-2.1c0.3-0.7,0.6-1.5,0.9-2.2
					c0.3-0.7,0.6-1.5,0.8-2.2c0.3-0.7,0.5-1.4,0.8-2.1c0-0.1,0.1-0.2,0.1-0.2c0.3-0.7,0.5-1.4,0.7-2.1c0.3-1,0.7-2,1-2.9
					c0.2-0.5,0.3-1,0.5-1.6c0.5-1.5,1-3,1.4-4.5c0.3-0.9,0.5-1.7,0.8-2.6c0.5-1.7,0.9-3.4,1.4-5.1c0.9-3.4,1.7-6.9,2.4-10.4
					c0.4-1.8,0.7-3.5,1-5.3c0.3-1.8,0.6-3.5,0.9-5.3c0.3-1.8,0.5-3.6,0.8-5.4c0.1-0.7,0.2-1.4,0.3-2.1c0-0.4,0.1-0.9,0.2-1.3
					c0.1-1.1,0.2-2.2,0.3-3.3c0,0,0-0.1,0-0.1c0.1-0.9,0.2-1.7,0.2-2.6c0-0.4,0.1-0.8,0.1-1.3c0.1-1,0.1-1.9,0.2-2.9
					c0-0.6,0.1-1.2,0.1-1.7c0-0.6,0.1-1.1,0.1-1.7c0,0,0,0,0,0c0-0.7,0.1-1.3,0.1-1.9c0-0.3,0-0.6,0-0.9c0-0.4,0-0.8,0-1.2
					c0-0.8,0.1-1.5,0.1-2.3v-0.2c0-1.3,0-2.6,0-4c0-1.3,0-2.7,0-4c0-1.3-0.1-2.7-0.1-4c0-1.3-0.1-2.6-0.2-4
					c-0.1-1.3-0.2-2.6-0.3-3.9c-0.1-1.3-0.2-2.6-0.3-3.9c-0.1-1.3-0.2-2.6-0.4-3.8c0,0,0,0,0-0.1c-0.1-1.3-0.3-2.6-0.5-3.9
					c-0.2-1.2-0.3-2.3-0.5-3.5c0-0.3-0.1-0.7-0.1-1c-0.2-1-0.3-2-0.5-3c-0.2-1.2-0.4-2.3-0.6-3.5c-0.2-0.9-0.3-1.8-0.5-2.7
					c0-0.1,0-0.3-0.1-0.4c0-0.1,0-0.1,0-0.2c-0.1-0.7-0.3-1.5-0.5-2.2c-0.2-0.8-0.3-1.6-0.5-2.4c0-0.2-0.1-0.4-0.1-0.5
					c-0.2-1-0.4-1.9-0.7-2.9c-0.1-0.4-0.2-0.9-0.3-1.3c-0.1-0.6-0.3-1.1-0.4-1.6c-0.2-0.8-0.4-1.7-0.7-2.5c-0.2-0.6-0.3-1.3-0.5-2
					c-0.1-0.4-0.2-0.7-0.3-1.1c-0.1-0.5-0.3-1-0.5-1.6c-0.2-0.8-0.4-1.6-0.7-2.3c-0.1-0.3-0.2-0.7-0.3-1c-0.3-1-0.6-2.1-1-3.1
					c0-0.1-0.1-0.2-0.1-0.3c0-0.1-0.1-0.2-0.1-0.4c-0.4-1.1-0.8-2.3-1.2-3.4c0-0.2-0.1-0.3-0.2-0.5c-0.3-1-0.7-2-1.1-3
					c0,0,0-0.1-0.1-0.2c-0.1-0.3-0.2-0.6-0.3-0.9c0,0,0,0,0,0c-0.3-0.9-0.7-1.8-1-2.7c-0.1-0.4-0.3-0.7-0.4-1.1
					c-0.2-0.5-0.3-0.9-0.5-1.4c-0.3-0.7-0.6-1.5-0.9-2.2c-0.3-0.6-0.5-1.2-0.8-1.8c-0.2-0.5-0.4-1-0.6-1.5c-0.3-0.7-0.6-1.4-0.9-2.1
					c-0.1-0.2-0.1-0.3-0.2-0.5c-0.4-0.8-0.7-1.6-1.1-2.5c-0.1-0.2-0.2-0.4-0.3-0.5c-0.4-0.8-0.8-1.6-1.1-2.4
					c-0.1-0.1-0.1-0.2-0.2-0.4c-0.3-0.7-0.7-1.4-1-2.1c-0.1-0.2-0.2-0.4-0.3-0.7c-0.4-0.8-0.8-1.5-1.2-2.3c-0.2-0.4-0.5-0.9-0.7-1.3
					c-0.3-0.5-0.5-1-0.8-1.5c-0.2-0.4-0.4-0.8-0.6-1.2c-0.2-0.4-0.4-0.8-0.7-1.2c-0.6-1-1.1-2-1.7-3c-0.3-0.5-0.6-1-0.9-1.5
					c-0.1-0.1-0.2-0.3-0.3-0.4c-0.2-0.3-0.4-0.7-0.6-1c-0.3-0.5-0.6-1-0.9-1.4c0-0.1-0.1-0.2-0.2-0.3c-0.4-0.7-0.9-1.5-1.4-2.2
					c-0.3-0.5-0.6-1.1-1-1.6c-0.2-0.3-0.3-0.6-0.5-0.8c-0.4-0.7-0.9-1.3-1.3-2c-0.1-0.1-0.1-0.2-0.2-0.2c-0.6-0.9-1.2-1.8-1.9-2.8
					c-0.3-0.4-0.5-0.8-0.8-1.2c-0.7-0.9-1.3-1.9-2-2.8c-0.4-0.6-0.8-1.1-1.2-1.6c-0.4-0.5-0.8-1.1-1.2-1.6c-0.7-0.9-1.4-1.9-2.1-2.8
					c-0.3-0.4-0.7-0.8-1-1.3c-0.6-0.8-1.3-1.6-1.9-2.4c0,0,0-0.1-0.1-0.1c-0.7-0.9-1.4-1.8-2.2-2.6c-0.3-0.3-0.5-0.7-0.8-1
					c-0.3-0.3-0.6-0.7-0.8-1c-0.3-0.3-0.6-0.7-0.9-1c-0.3-0.3-0.5-0.6-0.8-0.9c-0.4-0.5-0.8-0.9-1.2-1.4c-0.4-0.5-0.8-0.9-1.2-1.4
					c-0.4-0.5-0.8-0.9-1.3-1.4c-0.5-0.5-1-1.1-1.5-1.6c-0.9-1-1.8-2-2.8-2.9c-1-1-1.9-1.9-2.8-2.9c0,0-0.1-0.1-0.1-0.1
					c-2.2-2.1-4.4-4.3-6.7-6.3c-0.8-0.7-1.5-1.4-2.3-2c-0.5-0.5-1-0.9-1.5-1.3c-0.5-0.4-1-0.9-1.6-1.3c-1-0.9-2.1-1.8-3.2-2.6
					c-0.5-0.4-1-0.8-1.6-1.3c-0.5-0.4-1.1-0.8-1.6-1.3c0,0-0.1,0-0.1-0.1l-1.4-1.1c-0.6-0.5-1.2-0.9-1.8-1.4
					c-0.3-0.2-0.6-0.4-0.9-0.7c-0.3-0.2-0.6-0.5-0.9-0.7c-0.2-0.2-0.5-0.4-0.7-0.5c-0.6-0.4-1.1-0.8-1.7-1.2c-0.7-0.5-1.4-1-2.1-1.5
					c-0.4-0.3-0.7-0.5-1.1-0.8c-0.7-0.5-1.4-0.9-2-1.4l-0.5-0.4c-1-0.6-1.9-1.3-2.9-1.9c-1-0.7-2.1-1.3-3.1-2
					c-1.1-0.7-2.1-1.3-3.2-1.9c-0.9-0.5-1.7-1-2.6-1.5c-0.3-0.2-0.6-0.4-1-0.6c-1-0.6-1.9-1.1-2.9-1.6c-0.9-0.5-1.7-0.9-2.6-1.4
					c-0.1-0.1-0.2-0.1-0.4-0.2c-0.6-0.3-1.2-0.6-1.8-0.9c-0.7-0.4-1.4-0.7-2.1-1.1c-1.1-0.5-2.1-1-3.2-1.5l3.8,4.4l1.5,1.7
					c-7.8-5.3-18.4-4.9-25.9,1.6c-1.7,1.5-3.1,3.1-4.2,5c-0.1,0.2-0.3,0.5-0.4,0.7c0.1,0,0.3,0.1,0.4,0.2c5.1,2,10.2,4.1,15.2,6.5
					c16.6,8,31.8,18.2,45.3,30.4c12.9,11.5,24.2,24.8,33.6,39.5c19.9,31,30.4,66.9,30.4,103.9c0,25.1-4.8,49.5-13.9,72.1
					C744,865.8,731.5,885.5,715.6,902.9z"/>
			</g>
		</g>
	</g>
	<g>
		<path class="st84" d="M637.5,759.2l-6.8-8.1L637.5,759.2z"/>
		<path class="st57" d="M657.8,759.1c0-4.6-1.5-9.2-4.7-13l-6.8-8.1c-7.2-8.6-19.9-9.8-28.5-2.6c-8.6,7.2-9.8,19.9-2.6,28.5l6.8,8.1
			c7.2,8.6,19.9,9.8,28.5,2.6C655.3,770.7,657.8,764.9,657.8,759.1z"/>
	</g>
	<g>
		<path class="st59" d="M641.6,591.8c1.2-2.1,2.7-4,4.6-5.7c7.4-6.5,18.1-6.9,25.9-1.6l-5.3-6.1c-21.6-10.4-45.2-17.3-70-19.9
			c0.1,0.6,0.2,1.2,0.4,1.7l20.7,24.3C625.9,586.5,633.8,588.9,641.6,591.8z"/>
	</g>
	<g>
		<path class="st58" d="M650,622.8l-5.8-6.6c-1.1-1.3-2-2.6-2.8-4c-3.4-6.4-3.3-14.1,0.2-20.4c-7.7-2.9-15.6-5.3-23.7-7.2
			l-20.7-24.3c0.8,3,2.3,5.8,4.5,8.2l13.5,15.4l30.7,35.2C647.1,620.6,648.5,621.8,650,622.8z"/>
	</g>
	<g>
		<g>
			<path class="st59" d="M447,627.2C447,627.2,447,627.1,447,627.2l1.8-1.6c34.8-29.7,79.1-46,125-46c6.6,0,13.2,0.3,19.5,1l1.1,0.1
				l0.1,0c7,0.7,13.9,1.9,20.7,3.4l-13.5-15.4c-2.2-2.5-3.6-5.3-4.5-8.2l-1.6-1.9h0c-7.2-0.7-14.4-1.1-21.8-1.1
				c-54,0-103.4,19.9-141.1,52.9L447,627.2z"/>
		</g>
		<g>
			<path class="st58" d="M607.1,722.9c4.7-4,7.1-9.7,7.1-15.4c0-4.7-1.6-9.3-4.8-13.1l-5.1-6c6.4,1.9,13.5,0.7,19-4
				c4.7-4,7.1-9.7,7.1-15.4c0-3.9-1.1-7.8-3.4-11.2l11.3,13.2c7.3,8.5,20,9.5,28.5,2.3c4.7-4,7.1-9.7,7.1-15.4
				c0-4.6-1.6-9.3-4.8-13.1l-27.8-32.5l-23.5-27.5l-20.7-24.3c0.8,3,2.3,5.8,4.5,8.2l13.5,15.4c-6.8-1.5-13.7-2.6-20.7-3.4l-0.1,0
				l-1.1-0.1c-6.4-0.6-13-1-19.5-1c-45.9,0-90.1,16.3-125,46l-1.7,1.5c0,0-0.1,0.1-0.1,0.1l67.2,79.1c7.2,8.5,20,9.6,28.5,2.3
				c4.7-4,7.2-9.7,7.2-15.4c0-2.9-0.6-5.8-1.9-8.5l30.6,35.9C585.8,729.2,598.6,730.2,607.1,722.9z"/>
		</g>
		<g>
			<path class="st59" d="M429.8,900.5c-15.8-17.7-28.2-38.2-36.6-60.7c-8.1-21.6-12.2-44.3-12.2-67.6c0-15.1,1.7-29.8,5-44.1
				c2.7-11.7,6.6-23.1,11.5-34.2l-10.5-12.6c-1.7-2-3.6-3.6-5.8-4.7c0,0,0,0,0,0c-14.3,28.8-22.4,61.3-22.4,95.6
				c0,26.5,4.8,51.9,13.6,75.3l38.7,46.4C415.8,899.6,423.1,901.9,429.8,900.5z"/>
		</g>
		<g>
			<path class="st58" d="M429.8,900.5c3-0.6,5.9-2,8.4-4.1c4.5-3.8,6.9-9.3,6.9-14.8c0-4.4-1.5-8.7-4.5-12.3l-14.6-17.5
				c8.2,3.7,18.1,2.7,25.5-3.5c5.7-4.8,8.7-11.7,8.7-18.7c0-0.2,0-0.3,0-0.4l16.3,19.5c6.8,8.2,18.9,9.3,27.1,2.5
				c4.6-3.8,6.9-9.3,6.9-14.8c0-4.3-1.5-8.7-4.5-12.3L397.6,694c-5,11.1-8.8,22.5-11.5,34.2c-3.4,14.3-5,29.1-5,44.1
				c0,23.3,4.1,46,12.2,67.6C401.6,862.4,414,882.9,429.8,900.5z"/>
		</g>
		<g>
			<path class="st59" d="M397.7,693.8c1.1-2.4,2.2-4.8,3.4-7.2c0,0,0.4-0.8,0.6-1.2l0.1-0.1l0.1-0.1c11.2-22.1,26.3-41.5,45-57.9
				l-14.3-16.9c-20.7,18.1-37.9,40-50.5,64.8L397.7,693.8z"/>
		</g>
		<g>
			<path class="st58" d="M590.9,828.3c4.7-4,7.2-9.7,7.2-15.4c0-4.6-1.6-9.3-4.8-13.1L446.8,627.3c-18.7,16.4-33.9,35.9-45,57.9
				l-0.1,0.1l-0.1,0.1c-0.2,0.4-0.6,1.2-0.6,1.2c-1.2,2.4-2.3,4.8-3.4,7.2l83.6,99.6c7.2,8.6,20,9.7,28.5,2.5
				c4.8-4,7.2-9.7,7.2-15.5c0-4.6-1.6-9.2-4.7-13l-31.1-37l81.2,95.6C569.6,834.5,582.4,835.5,590.9,828.3z"/>
		</g>
	</g>
	<g>
		<path class="st50" d="M680.1,727.1c0-4.3-1.5-8.7-4.5-12.3l-59.9-71.8c-6.8-8.2-18.9-9.3-27.1-2.5c-8.2,6.8-9.3,18.9-2.5,27.1
			l59.9,71.8c6.8,8.2,18.9,9.3,27.1,2.5C677.7,738.1,680.1,732.6,680.1,727.1z"/>
	</g>
	<g>
		<path class="st15" d="M523.3,686.3l59.9,71.8L523.3,686.3z"/>
		<path class="st50" d="M603.5,758.1c0-4.6-1.5-9.2-4.7-13l-59.9-71.8c-7.2-8.6-19.9-9.8-28.5-2.6c-8.6,7.2-9.8,19.9-2.6,28.5
			l59.9,71.8c7.2,8.6,19.9,9.8,28.5,2.6C601,769.7,603.5,763.9,603.5,758.1z"/>
	</g>
	<g>
		<path class="st50" d="M575.1,851.3c0-4.5-1.5-9.1-4.6-12.8l-67.3-82c-7.1-8.6-19.9-9.9-28.5-2.8c-8.6,7.1-9.9,19.9-2.8,28.5
			l67.3,82c7.1,8.6,19.9,9.9,28.5,2.8C572.6,863,575.1,857.1,575.1,851.3z"/>
	</g>
	<g>
		<path class="st50" d="M487.8,869.4c0-4.6-1.5-9.1-4.7-12.9l-32.6-39.3c-7.1-8.6-19.9-9.8-28.5-2.6s-9.8,19.9-2.6,28.5l32.6,39.3
			c7.1,8.6,19.9,9.8,28.5,2.6C485.3,881,487.8,875.2,487.8,869.4z"/>
	</g>
</g>
<path class="st89" d="M489.9,724.1c0-8.2-8.1-15-18-15H247.8c-9.9,0-18,6.8-18,15c0,8.3,8.1,15,18,15h224.1
	C481.8,739.1,489.9,732.4,489.9,724.1z"/>
<path class="st82" d="M489.9,738.5c0-5.5-8.1-10-18-10H247.8c-9.9,0-18,4.5-18,10s8.1,10,18,10h224.1
	C481.8,748.5,489.9,744,489.9,738.5z"/>
<g>
	<g>
		<circle class="st16" cx="86.1" cy="239.6" r="9.9"/>
		<g class="st38">
			<path class="st18" d="M86.1,229.7c5.5,0,9.9,4.4,9.9,9.9s-4.4,9.9-9.9,9.9s-9.9-4.4-9.9-9.9S80.6,229.7,86.1,229.7L86.1,229.7z
				 M86.1,207.5L86.1,207.5L86.1,207.5c-17.7,0-32.1,14.4-32.1,32.1c0,17.7,14.4,32.1,32.1,32.1c17.7,0,32.1-14.4,32.1-32.1
				S103.8,207.5,86.1,207.5L86.1,207.5z"/>
		</g>
		<g class="st38">
			<path class="st81" d="M86.1,229.7c5.5,0,9.9,4.4,9.9,9.9s-4.4,9.9-9.9,9.9s-9.9-4.4-9.9-9.9S80.6,229.7,86.1,229.7L86.1,229.7z
				 M86.1,222.3L86.1,222.3c-9.6,0-17.3,7.8-17.3,17.3S76.5,257,86.1,257c9.6,0,17.3-7.8,17.3-17.3
				C103.4,230.1,95.6,222.3,86.1,222.3L86.1,222.3z"/>
		</g>
	</g>
	<g>
		<circle class="st68" cx="86.1" cy="239.6" r="5.1"/>
		<g class="st38">
			<path class="st81" d="M86.1,234.6c2.8,0,5.1,2.3,5.1,5.1c0,2.8-2.3,5.1-5.1,5.1c-2.8,0-5.1-2.3-5.1-5.1
				C81,236.8,83.2,234.6,86.1,234.6L86.1,234.6z M86.1,230.8L86.1,230.8c-4.9,0-8.9,4-8.9,8.9c0,4.9,4,8.9,8.9,8.9
				c4.9,0,8.9-4,8.9-8.9C94.9,234.7,90.9,230.8,86.1,230.8L86.1,230.8z"/>
		</g>
	</g>
</g>
<path class="st92" d="M373.9,815.3c0-8.3-8.1-15-18-15H180.1c-9.9,0-18,6.7-18,15c0,8.2,8.1,15,18,15h175.8
	C365.8,830.3,373.9,823.6,373.9,815.3z"/>
<path class="st92" d="M362.9,750c0-8.3-8.1-15-18-15l-224.1,0c-9.9,0-18,6.7-18,15c0,8.2,8.1,15,18,15h224.1
	C354.8,765,362.9,758.2,362.9,750z"/>
<path class="st82" d="M794.8,782.5c0-9.9-8.1-18-18-18h-12.5c-9.9,0-18,8.1-18,18v4c0,9.9,8.1,18,18,18h12.5c9.9,0,18-8.1,18-18
	V782.5z"/>
<g>
	<g>
		<g>
			<g>
				<g>
					<path class="st61" d="M310.1,685.9l0.3-123.2c0-12.1-10.3-22.1-22.5-22.1l-87.6-0.2c-12.1,0-22.1,9.9-22,22l0.1,132.5
						c0,0.1,0,0.2,0,0.3l-0.2,86.3c0,8,6.5,14.5,14.5,14.5l27.6,0.1c8,0,14.5-6.5,14.5-14.5l0.1-64.6l19.2,0l-0.1,64.6
						c0,8,6.5,14.5,14.5,14.5l27.1,0.1c8,0,14.5-6.5,14.5-14.5L310.1,685.9L310.1,685.9z"/>
					<path class="st67" d="M86.4,502.9c4.7-2.6,7.9,10.4,11,9c2.6-1.2-9.5-20.3-4.3-22.4c6-2.4,8.7,18.4,12,16.8
						c2.1-1-6.1-20.5-0.3-21.7c6.8-1.4,5.3,20.5,8.6,19.4c2.3-0.8-0.9-18.4,4.6-18c5.1,0.4,3.8,14.2,4,21.3c0.1,2.5,2.5,3.2,3.7,1.8
						c2.9-3.2,7.4-8.2,10.5-6.1c4,2.7,0.3,6.7-4.5,14.9c-2.1,3.6-0.4,14.7-2.6,15.9c-1.6,0.9-12.8,0.1-14.5,0.4
						c-0.6,0.2-1.2,0.3-1.8,0.4c-5.9,0.8-9.5,7.9-12.6,3.3c-1.4-1.7-1.4-7.2-3.3-9.8C90,518.6,82,505.3,86.4,502.9z"/>
					<g>
						<g>
							<path class="st67" d="M197.5,576.6l-2,31.8l-49.5-3.1c-19.2-1.2-36.8-17-40.1-36l-4.4-25.1l-0.1-0.4l-0.4-2.2l7-1.2l24.4-4.3
								l2.2,12.5l2.7,15.2c0.8,4.5,6.2,9.3,10.8,9.6L197.5,576.6z"/>
						</g>
						<polygon class="st61" points="133.4,542.2 101.4,544.3 100.9,544.2 101.4,543.9 108,540.5 132.4,536.2 						"/>
					</g>
					<g>
						<g>
							<path class="st67" d="M356.1,687.1l-31.9,0l0-64.9c0-4-3.9-8.5-7.9-9.1l-49.7-7.3l4.7-31.5l49.7,7.3
								c19.7,2.9,35.1,20.8,35.1,40.7L356.1,687.1z"/>
						</g>
					</g>
					<path class="st67" d="M268.3,783.1c-0.8,0-1.4-0.7-1.4-1.5l0.2-73.3l-45.2-0.1l-0.2,73.3c0,0.8-0.7,1.4-1.4,1.4l-27.6-0.1
						c-0.8,0-1.4-0.7-1.4-1.5l0.2-86.5c0-0.2,0-0.3,0-0.5l-0.1-132.1c0-2.4,0.9-4.6,2.6-6.3s3.9-2.6,6.3-2.6l87.6,0.2
						c5,0,9.4,4.3,9.4,9.1l-0.5,219c0,0.8-0.7,1.4-1.4,1.4L268.3,783.1z"/>
					<g>
						<path class="st68" d="M224,651.8c-4,0-7.5-3.4-7.5-7.3l0.1-30.3c0-1.9,0.8-3.8,2.1-5.1c1.4-1.4,3.2-2.1,5.1-2.1l40.4,0.1
							c4,0,7.5,3.4,7.5,7.3l-0.1,30.3c0,1.9-0.8,3.8-2.1,5.1c-1.4,1.4-3.2,2.1-5.1,2.1L224,651.8z"/>
						<path class="st26" d="M223.9,604l0,5.8l40.4,0.1c2.4,0,4.6,2.1,4.6,4.4l-0.1,30.4c0,1.2-0.5,2.2-1.3,3.1s-1.9,1.3-3.1,1.3
							l-40.4-0.1c-2.4,0-4.6-2.1-4.6-4.4l0.1-30.4c0-1.2,0.5-2.2,1.3-3.1c0.8-0.8,1.9-1.3,3.1-1.3L223.9,604L223.9,604z M223.9,604
							c-5.6,0-10.1,4.6-10.1,10.2l-0.1,30.4c0,5.6,4.8,10.2,10.3,10.2l40.4,0.1c0,0,0,0,0,0c5.6,0,10.1-4.6,10.1-10.2l0.1-30.4
							c0-5.6-4.8-10.2-10.3-10.2L223.9,604C223.9,604,223.9,604,223.9,604L223.9,604z"/>
					</g>
					<path class="st2" d="M310.4,796.4c0,8-6.6,14.5-14.5,14.5l-28-0.1c-8,0-14.5-6.6-14.5-14.5l0-10.7c0-8,6.6-14.5,14.5-14.5
						l28,0.1c8,0,14.5,6.6,14.5,14.5L310.4,796.4z"/>
					<path class="st79" d="M311.7,810c0,1.6-1.3,2.9-2.9,2.9l-54.1-0.1c-1.6,0-2.9-1.3-2.9-2.9l0-7.5c0-1.6,1.3-2.9,2.9-2.9
						l54.1,0.1c1.6,0,2.9,1.3,2.9,2.9L311.7,810z"/>
					<path class="st2" d="M234.5,796.3c0,8-6.6,14.5-14.5,14.5l-28-0.1c-8,0-14.5-6.6-14.5-14.5l0-10.7c0-8,6.6-14.5,14.5-14.5
						l28,0.1c8,0,14.5,6.6,14.5,14.5L234.5,796.3z"/>
					<path class="st79" d="M235.8,809.9c0,1.6-1.3,2.9-2.9,2.9l-54.1-0.1c-1.6,0-2.9-1.3-2.9-2.9l0-7.5c0-1.6,1.3-2.9,2.9-2.9
						l54.1,0.1c1.6,0,2.9,1.3,2.9,2.9L235.8,809.9z"/>
					<path class="st12" d="M233,743.8c1.6,0,2.9,1.3,2.9,2.9l0,3.8c0,1.6-1.3,2.9-2.9,2.9l-27.7-0.1c-1.6,0-4.2,0-5.8,0l-11.2,0
						c-1.6,0-4.2,0-5.8,0l-3.6,0c-1.6,0-2.9-1.3-2.9-2.9l0-3.8c0-1.6,1.3-2.9,2.9-2.9l3.6,0c1.6,0,4.2,0,5.8,0l11.2,0
						c1.6,0,4.2,0,5.8,0L233,743.8z"/>
					<path class="st12" d="M178.6,573v1.3l0,9.6l-0.1,28.3c0,1.6-1.3,2.9-2.9,2.9l-6.7,0c-1.6,0-2.9-1.3-2.9-2.9l0.1-29l0-9.2v-0.9
						c0-1.6,1.3-2.9,2.9-2.9l6.7,0C177.3,570.1,178.6,571.4,178.6,573z"/>
					<path class="st12" d="M97.2,534.8c-0.3-1.6,0.7-3.1,2.2-3.4l31.2-6.2c1.6-0.3,3.1,0.7,3.4,2.3l1.5,6.9c0.3,1.6-0.7,3.1-2.2,3.4
						l-31.2,6.2c-1.6,0.3-3.1-0.7-3.4-2.3L97.2,534.8z"/>
					<path class="st95" d="M312.4,620.3c-1.6,0-2.9-1.3-2.9-2.9l0.1-39.2c0-1.6,1.3-2.9,2.9-2.9l6.7,0c1.6,0,2.9,1.3,2.9,2.9
						l-0.1,39.2c0,1.6-1.3,2.9-2.9,2.9L312.4,620.3z"/>
					<path class="st12" d="M233.3,713.5c1.5,0.6,2.6,2.5,2.6,4.1l0,6.7c0,1.6-1.3,2.6-2.8,2.2l-28-6.9c-1.5-0.4-4.1-1-5.6-1.4
						l-11.4-2.8c-1.5-0.4-4.1-1-5.6-1.4l-3.7-0.9c-1.5-0.4-2.8-2-2.8-3.6l0-18.3c0-1.6,1.2-2.4,2.7-1.7l3.9,1.7
						c1.5,0.6,3.8,1.7,5.3,2.3l11.7,5.2c1.5,0.6,3.8,1.7,5.3,2.3L233.3,713.5z"/>
					<path class="st12" d="M312,691.4c0-1.6-1.2-2.4-2.7-1.7l-54.7,23.9c-1.5,0.6-2.7,2.5-2.7,4.1l0,6.7c0,1.6,1.3,2.6,2.8,2.2
						l54.3-13.2c1.5-0.4,2.8-2,2.8-3.6L312,691.4z"/>
					<path class="st12" d="M312,750.6c0,1.6-1.3,2.9-2.9,2.9l-54.1-0.1c-1.6,0-2.9-1.3-2.9-2.9l0-3.8c0-1.6,1.3-2.9,2.9-2.9
						l54.1,0.1c1.6,0,2.9,1.3,2.9,2.9L312,750.6z"/>
				</g>
				<g>
					<path class="st8" d="M258.4,631.6C258.4,631.6,258.4,631.6,258.4,631.6l-17.3,0c-1.6,0-2.9-1.3-2.9-2.9c0-1.6,1.3-2.9,2.9-2.9
						h0l17.3,0c1.6,0,2.9,1.3,2.9,2.9C261.3,630.3,260,631.6,258.4,631.6z"/>
				</g>
				<g>
					<path class="st45" d="M232.2,631.5L232.2,631.5l-1.3,0c-1.6,0-2.9-1.3-2.9-2.9c0-1.6,1.3-2.9,2.9-2.9h0l1.3,0
						c1.6,0,2.9,1.3,2.9,2.9C235.1,630.2,233.8,631.5,232.2,631.5z"/>
				</g>
				<g>
					<path class="st8" d="M258.4,622L258.4,622l-17.3,0c-1.6,0-2.9-1.3-2.9-2.9c0-1.6,1.3-2.9,2.9-2.9h0l17.3,0
						c1.6,0,2.9,1.3,2.9,2.9C261.3,620.7,260,622,258.4,622z"/>
				</g>
				<g>
					<path class="st54" d="M232.2,622C232.2,622,232.2,622,232.2,622l-1.3,0c-1.6,0-2.9-1.3-2.9-2.9c0-1.6,1.3-2.9,2.9-2.9
						c0,0,0,0,0,0l1.3,0c1.6,0,2.9,1.3,2.9,2.9C235.1,620.7,233.8,622,232.2,622z"/>
				</g>
			</g>
			<path class="st6" d="M287.9,540.5l-87.6-0.2c-12.1,0-22.1,9.9-22,22l0,11.9c16.9,10.7,39.9,21.7,65.3,21.7
				c26,0.1,49.6-11.2,66.8-22.3l0-11.1C310.3,550.5,300,540.6,287.9,540.5z"/>
			<circle class="st61" cx="243.8" cy="498.7" r="94.4"/>
			<path class="st76" d="M310.8,503.7c0.1-37-29.9-67.1-66.9-67.1c-37-0.1-67.1,29.9-67.1,66.9l-0.1,29.1
				c-0.1,24.3,29.9,44,66.9,44.1s67-19.5,67.1-43.8L310.8,503.7z"/>
			<g>
				<g>
					<path class="st11" d="M291.8,507.7c-1.1,25.2-22.6,45.9-47.6,45.9c-25,0-46.4-20.6-47.5-45.9l-0.7-15.9
						c-1.1-25.2,18.6-45.8,43.9-45.8l8.8,0c25.3,0.1,45,20.7,43.8,46L291.8,507.7z"/>
					<path class="st55" d="M208.7,521.7c0.2,4.7-3.5,8.6-8.2,8.8l0,0c-4.7,0.2-8.6-3.5-8.8-8.2l-0.3-7.2c-0.2-4.7,3.5-8.6,8.2-8.8
						l0,0c4.7-0.2,8.6,3.5,8.8,8.2L208.7,521.7z"/>
					<path class="st51" d="M198.5,513.2c0.5,0,0.9,0.1,1.3,0.2l0.4,10.5c-0.4,0.2-0.8,0.3-1.3,0.3c-1.8,0.1-3.4-1.4-3.5-3.2
						l-0.2-4.4C195.2,514.8,196.7,513.2,198.5,513.2z"/>
					<path class="st55" d="M258.1,572.5c0,6.9-28.7,6.8-28.7-0.1l0-13.1c0-6.9,5.9-12.5,13.2-12.5l2.5,0c7.2,0,13.1,5.6,13.1,12.5
						L258.1,572.5z"/>
					<path class="st51" d="M229.4,564.4c0,4.1,9.1,7.2,14.3,7.2s14.4-2.4,14.4-7.1l0-20.5l-28.7-0.1L229.4,564.4z"/>
					<path class="st55" d="M286.8,527.4c-0.9,21.2-19,38.4-40.1,38.4l-5.9,0c-21.2,0-39.2-17.4-40-38.6l-1-26.7
						c-0.8-21.2,15.8-38.4,37-38.4l14.4,0c21.2,0,37.8,17.4,36.9,38.5L286.8,527.4z"/>
					<g>
						<path class="st51" d="M245.1,558.6c3-0.3,4.4-1.5,4.1-3.1c-0.1-0.7-3.1,0.4-5.4,0.4c-3.4,0-5.8-1.4-5.5,0.1
							C238.8,558.3,241.7,558.9,245.1,558.6z"/>
					</g>
					<path class="st51" d="M251.3,525c0-0.9-0.7-1-2.8-0.2c-1,0.4-2.7,0.8-4.7,0.8c-2,0-3.7-0.4-4.7-0.8c-2.1-0.8-2.8-0.7-2.8,0.2
						c0,1.2,3.6,4.9,7.5,4.9v0c0,0,0,0,0,0s0,0,0,0l0,0C247.6,529.9,251.3,526.3,251.3,525z"/>
				</g>
				<g>
					<path class="st10" d="M226.2,533.9c1.9,9.3,9,16.3,17.5,16.3c8.5,0,15.7-6.9,17.6-16.3L226.2,533.9z"/>
					<path class="st55" d="M224.8,534.6c5.1,1.7,11.7,3.3,19,3.4c7.3,0,14-1.6,19-3.3c0.1-0.3,0.2-1.1,0.3-1.4l-38.5-0.1
						C224.6,533.5,224.7,534.2,224.8,534.6z"/>
					<path class="st46" d="M255.4,545.2c-3.1-3.3-8.1-3.9-11.7-3.9c-3.6,0-8.5,0.6-11.7,3.9c3.1,3.1,7.2,5.1,11.7,5.1
						C248.2,550.2,252.3,548.4,255.4,545.2z"/>
				</g>
				<path class="st11" d="M222.1,473.4c7.1,0,21.5,0,34.9,0.1c5.6,0,10.5-0.1,13.7-3c10.5-9.3,8.5-27.8,8.5-27.8s-8.5,3.3-31.6,3.3
					c-24.1-0.1-34,7.4-40.1,14C203.4,464.5,222.1,473.4,222.1,473.4z"/>
				<path class="st11" d="M233,469c0,3.5,5.4,4.5-2.2,4.5c-6.1,0-20.7,3.7-20.8,20.7c0,7.1,0,14,0,17.2c0,3.1-3.6,2.9-3.8,0.1
					c-0.4-5.9-3.3-5-6.6-5c-3.2,0-1-25.8,0.7-28c1.7-2.2,9.6-11.8,12-13.3s13.7-7.4,13.7-7.4s6.1-1.9,8.2,1.2S233,469,233,469z"/>
				<g>
					<path class="st11" d="M218.5,501.9c-0.3,0-0.5-0.1-0.8-0.3c-0.4-0.4-0.5-1.1,0-1.5c2.9-3,6.3-3.9,10.9-3c0.6,0.1,1,0.7,0.8,1.3
						c-0.1,0.6-0.7,1-1.3,0.8c-4-0.8-6.5-0.2-8.9,2.3C219.1,501.8,218.8,501.9,218.5,501.9z"/>
				</g>
				<g>
					<path class="st11" d="M270.7,502c-0.3,0-0.6-0.1-0.8-0.3c-2.4-2.5-5-3.2-8.9-2.4c-0.6,0.1-1.2-0.3-1.3-0.8
						c-0.1-0.6,0.3-1.2,0.8-1.3c4.7-1,8,0,10.9,3c0.4,0.4,0.4,1.1,0,1.5C271.3,501.9,271,502,270.7,502z"/>
				</g>
				<g>
					<path class="st55" d="M279.3,521.8c-0.2,4.7,3.5,8.6,8.1,8.8l0,0c4.7,0.2,8.6-3.5,8.8-8.1l0.3-7.2c0.2-4.7-3.5-8.6-8.1-8.8l0,0
						c-4.7-0.2-8.6,3.5-8.8,8.1L279.3,521.8z"/>
					<path class="st51" d="M289.5,513.3c-0.5,0-0.9,0.1-1.3,0.2l-0.4,10.5c0.4,0.2,0.8,0.3,1.3,0.3c1.8,0.1,3.4-1.4,3.5-3.2l0.2-4.4
						C292.8,515,291.4,513.4,289.5,513.3z"/>
				</g>
				<path class="st11" d="M255.8,469c0,3.5-5.4,4.4,2.2,4.5c6.1,0,20.7,3.8,20.7,20.7c0,7.1,0,14,0,17.2c0,3.1,3.6,2.9,3.8,0.1
					c0.5-5.9,3.4-5,6.6-5c3.2,0,1.1-25.8-0.6-28s-9.5-11.8-11.9-13.3c-2.4-1.5-13.7-7.5-13.7-7.5s-6.1-1.9-8.2,1.1
					S255.8,469,255.8,469z"/>
				<path class="st11" d="M274.6,455.1c0,0,8.2-1.4,10.3-4.1c0,0,2.9,11.6-4.6,15.6c-6.8,3.7-9.5,0.7-9.5,0.7L274.6,455.1z"/>
				<g>
					<circle class="st78" cx="262.9" cy="511.5" r="6.6"/>
					<g>
						<path class="st75" d="M263.1,515.1c-0.8,0-1.6-0.3-2.2-0.9c-0.6-0.6-0.9-1.4-0.9-2.2c0-1.7,1.4-3.2,3.2-3.2
							c0.9,0,1.7,0.3,2.2,0.9c0.6,0.6,0.9,1.4,0.9,2.2C266.3,513.7,264.8,515.1,263.1,515.1L263.1,515.1z"/>
						<path class="st75" d="M263.1,509.1L263.1,509.1c1.6,0,2.9,1.3,2.9,2.9c0,1.6-1.3,2.9-2.9,2.9h0c-1.6,0-2.9-1.3-2.9-2.9
							C260.2,510.4,261.5,509.1,263.1,509.1L263.1,509.1z M263.1,508.5c-1.9,0-3.5,1.5-3.5,3.4c0,1.9,1.5,3.5,3.4,3.5
							c1.9,0,3.5-1.5,3.5-3.4C266.6,510.1,265,508.5,263.1,508.5L263.1,508.5L263.1,508.5L263.1,508.5z"/>
					</g>
					<circle class="st63" cx="266" cy="511.4" r="1.3"/>
					<circle class="st78" cx="226.4" cy="511.4" r="6.6"/>
					<g>
						<path class="st75" d="M226.6,515c-0.8,0-1.6-0.3-2.2-0.9s-0.9-1.4-0.9-2.2c0-1.7,1.4-3.2,3.2-3.2c1.8,0,3.2,1.4,3.2,3.2
							C229.7,513.6,228.3,515,226.6,515L226.6,515z"/>
						<path class="st75" d="M226.6,509C226.6,509,226.6,509,226.6,509c1.6,0,2.9,1.3,2.9,2.9c0,1.6-1.3,2.9-2.9,2.9c0,0,0,0,0,0
							c-1.6,0-2.9-1.3-2.9-2.9C223.7,510.3,225,509,226.6,509L226.6,509z M226.6,508.4c-1.9,0-3.5,1.5-3.5,3.4
							c0,1.9,1.5,3.5,3.4,3.5c1.9,0,3.5-1.5,3.5-3.4C230,510,228.5,508.4,226.6,508.4L226.6,508.4L226.6,508.4L226.6,508.4z"/>
					</g>
					<circle class="st63" cx="229.7" cy="510.9" r="1.3"/>
				</g>
			</g>
			<path class="st93" d="M310.8,502.2c0.1-37-29.9-67.1-66.9-67.1s-67.1,29.9-67.1,66.9l-0.1,29.1c-0.1,24.3,29.9,44,66.9,44.1
				c37,0.1,67-19.5,67.1-43.8L310.8,502.2z"/>
			<g>
				<path class="st63" d="M198.7,478.3c-0.8,0-1.7-0.2-2.4-0.7c-2-1.3-2.6-4-1.2-6c10.9-16.5,29.1-26.3,48.7-26.3c0,0,0.1,0,0.1,0
					c5.1,0,10.3,0.7,15.2,2c2.3,0.6,3.7,3,3.1,5.3c-0.6,2.3-3,3.7-5.3,3.1c-4.2-1.1-8.5-1.7-12.9-1.7c0,0-0.1,0-0.1,0
					c-16.7,0-32.2,8.4-41.5,22.4C201.5,477.6,200.1,478.3,198.7,478.3z"/>
			</g>
			<g>
				<path class="st63" d="M189.8,507.8L189.8,507.8c-2.4,0-4.4-2-4.3-4.4c0-6.1,1-12.2,2.9-18c0.7-2.3,3.2-3.5,5.5-2.8
					c2.3,0.7,3.5,3.2,2.8,5.5c-1.6,4.9-2.4,10.1-2.4,15.3C194.1,505.8,192.2,507.8,189.8,507.8z"/>
			</g>
			<path class="st83" d="M287.9,540.5l-87.6-0.2c-12.1,0-22.1,9.9-22,22l0,13.9c16.9,10.7,39.9,21.7,65.3,21.7
				c26,0.1,49.6-11.2,66.8-22.3l0-13.1C310.3,550.5,300,540.6,287.9,540.5z"/>
			<path class="st61" d="M243.6,593.1c-7.8,0-15.3-1-22.5-2.8c-41.2-10.2-71.8-47.5-71.7-91.9c0.1-52.1,42.5-94.3,94.6-94.2
				c12.5,0,24.3,2.5,35.2,6.9c34.7,14,59.1,48.1,59,87.7C338.1,551.1,295.7,593.3,243.6,593.1z"/>
			<path class="st67" d="M279.2,411.2c-0.2,0-0.3,0-0.5,0c-53.4-3.7-99.7,36.5-103.5,89.9c-2.6,37.2,16.1,71,45.8,89.3
				c-41.2-10.2-71.8-47.5-71.7-91.9c0.1-52.1,42.5-94.3,94.6-94.2C256.4,404.3,268.3,406.8,279.2,411.2z"/>
			<path class="st3" d="M310.8,503.7c0.1-37-29.9-67.1-66.9-67.1c-37-0.1-67.1,29.9-67.1,66.9l-0.1,29.1
				c-0.1,24.3,29.9,44,66.9,44.1s67-19.5,67.1-43.8L310.8,503.7z"/>
			<g>
				<g>
					<path class="st11" d="M291.8,507.7c-1.1,25.2-22.6,45.9-47.6,45.9c-25,0-46.4-20.6-47.5-45.9l-0.7-15.9
						c-1.1-25.2,18.6-45.8,43.9-45.8l8.8,0c25.3,0.1,45,20.7,43.8,46L291.8,507.7z"/>
					<path class="st56" d="M208.7,521.7c0.2,4.7-3.5,8.6-8.2,8.8l0,0c-4.7,0.2-8.6-3.5-8.8-8.2l-0.3-7.2c-0.2-4.7,3.5-8.6,8.2-8.8
						l0,0c4.7-0.2,8.6,3.5,8.8,8.2L208.7,521.7z"/>
					<path class="st73" d="M198.5,513.2c0.5,0,0.9,0.1,1.3,0.2l0.4,10.5c-0.4,0.2-0.8,0.3-1.3,0.3c-1.8,0.1-3.4-1.4-3.5-3.2
						l-0.2-4.4C195.2,514.8,196.7,513.2,198.5,513.2z"/>
					<path class="st55" d="M258.1,572.5c0,6.9-28.7,6.8-28.7-0.1l0-13.1c0-6.9,5.9-12.5,13.2-12.5l2.5,0c7.2,0,13.1,5.6,13.1,12.5
						L258.1,572.5z"/>
					<path class="st51" d="M229.4,564.4c0,4.1,9.1,7.2,14.3,7.2s14.4-2.4,14.4-7.1l0-20.5l-28.7-0.1L229.4,564.4z"/>
					<path class="st56" d="M286.8,527.4c-0.9,21.2-19,38.4-40.1,38.4l-5.9,0c-21.2,0-39.2-17.4-40-38.6l-1-26.7
						c-0.8-21.2,15.8-38.4,37-38.4l14.4,0c21.2,0,37.8,17.4,36.9,38.5L286.8,527.4z"/>
					<g>
						<path class="st51" d="M245.6,559.2c4.1-0.4,6-2,5.5-4.2c-0.2-0.9-4.2,0.5-7.4,0.5c-4.6,0-7.8-1.8-7.4,0.1
							C237.1,558.8,241,559.7,245.6,559.2z"/>
					</g>
					<path class="st51" d="M252.2,524.5c0-1-0.8-1.2-3.2-0.2c-1.1,0.4-3.1,0.9-5.3,1c-2.3,0-4.2-0.5-5.3-0.9
						c-2.4-0.9-3.2-0.7-3.2,0.3c0,1.4,4.1,5.6,8.5,5.5v0c0,0,0,0,0,0c0,0,0,0,0,0v0C248,530.1,252.2,525.9,252.2,524.5z"/>
				</g>
				<g>
					<path class="st13" d="M226.2,533.9c1.9,9.3,9,16.3,17.5,16.3c8.5,0,15.7-6.9,17.6-16.3L226.2,533.9z"/>
					<path class="st56" d="M224.8,534.6c5.1,1.7,11.7,3.3,19,3.4c7.3,0,14-1.6,19-3.3c0.1-0.3,0.2-1.1,0.3-1.4l-38.5-0.1
						C224.6,533.5,224.7,534.2,224.8,534.6z"/>
					<path class="st46" d="M255.4,545.2c-3.1-3.3-8.1-3.9-11.7-3.9c-3.6,0-8.5,0.6-11.7,3.9c3.1,3.1,7.2,5.1,11.7,5.1
						C248.2,550.2,252.3,548.4,255.4,545.2z"/>
				</g>
				<path class="st11" d="M222.1,473.4c7.1,0,21.5,0,34.9,0.1c5.6,0,10.5-0.1,13.7-3c10.5-9.3,8.5-27.8,8.5-27.8s-8.5,3.3-31.6,3.3
					c-24.1-0.1-34,7.4-40.1,14C203.4,464.5,222.1,473.4,222.1,473.4z"/>
				<path class="st11" d="M233,469c0,3.5,5.4,4.5-2.2,4.5c-6.1,0-20.7,3.7-20.8,20.7c0,7.1,0,14,0,17.2c0,3.1-3.6,2.9-3.8,0.1
					c-0.4-5.9-3.3-5-6.6-5c-3.2,0-1-25.8,0.7-28c1.7-2.2,9.6-11.8,12-13.3s13.7-7.4,13.7-7.4s6.1-1.9,8.2,1.2S233,469,233,469z"/>
				<g>
					<path class="st11" d="M218.5,501.9c-0.3,0-0.5-0.1-0.8-0.3c-0.4-0.4-0.5-1.1,0-1.5c2.9-3,6.3-3.9,10.9-3c0.6,0.1,1,0.7,0.8,1.3
						c-0.1,0.6-0.7,1-1.3,0.8c-4-0.8-6.5-0.2-8.9,2.3C219.1,501.8,218.8,501.9,218.5,501.9z"/>
				</g>
				<g>
					<path class="st11" d="M270.7,502c-0.3,0-0.6-0.1-0.8-0.3c-2.4-2.5-5-3.2-8.9-2.4c-0.6,0.1-1.2-0.3-1.3-0.8
						c-0.1-0.6,0.3-1.2,0.8-1.3c4.7-1,8,0,10.9,3c0.4,0.4,0.4,1.1,0,1.5C271.3,501.9,271,502,270.7,502z"/>
				</g>
				<g>
					<path class="st56" d="M279.3,521.8c-0.2,4.7,3.5,8.6,8.1,8.8l0,0c4.7,0.2,8.6-3.5,8.8-8.1l0.3-7.2c0.2-4.7-3.5-8.6-8.1-8.8l0,0
						c-4.7-0.2-8.6,3.5-8.8,8.1L279.3,521.8z"/>
					<path class="st73" d="M289.5,513.3c-0.5,0-0.9,0.1-1.3,0.2l-0.4,10.5c0.4,0.2,0.8,0.3,1.3,0.3c1.8,0.1,3.4-1.4,3.5-3.2l0.2-4.4
						C292.8,515,291.4,513.4,289.5,513.3z"/>
				</g>
				<path class="st11" d="M255.8,469c0,3.5-5.4,4.4,2.2,4.5c6.1,0,20.7,3.8,20.7,20.7c0,7.1,0,14,0,17.2c0,3.1,3.6,2.9,3.8,0.1
					c0.5-5.9,3.4-5,6.6-5c3.2,0,1.1-25.8-0.6-28s-9.5-11.8-11.9-13.3c-2.4-1.5-13.7-7.5-13.7-7.5s-6.1-1.9-8.2,1.1
					S255.8,469,255.8,469z"/>
				<path class="st11" d="M274.6,455.1c0,0,8.2-1.4,10.3-4.1c0,0,2.9,11.6-4.6,15.6c-6.8,3.7-9.5,0.7-9.5,0.7L274.6,455.1z"/>
				<g>
					<circle class="st17" cx="262.9" cy="511.5" r="6.6"/>
					<g>
						<path class="st75" d="M263.1,515.1c-0.8,0-1.6-0.3-2.2-0.9c-0.6-0.6-0.9-1.4-0.9-2.2c0-1.7,1.4-3.2,3.2-3.2
							c0.9,0,1.7,0.3,2.2,0.9c0.6,0.6,0.9,1.4,0.9,2.2C266.3,513.7,264.8,515.1,263.1,515.1L263.1,515.1z"/>
						<path class="st75" d="M263.1,509.1L263.1,509.1c1.6,0,2.9,1.3,2.9,2.9c0,1.6-1.3,2.9-2.9,2.9h0c-1.6,0-2.9-1.3-2.9-2.9
							C260.2,510.4,261.5,509.1,263.1,509.1L263.1,509.1z M263.1,508.5c-1.9,0-3.5,1.5-3.5,3.4c0,1.9,1.5,3.5,3.4,3.5
							c1.9,0,3.5-1.5,3.5-3.4C266.6,510.1,265,508.5,263.1,508.5L263.1,508.5L263.1,508.5L263.1,508.5z"/>
					</g>
					<g>
						<path class="st66" d="M266,513c-0.9,0-1.6-0.7-1.6-1.7c0-0.9,0.7-1.6,1.6-1.6c0.9,0,1.6,0.7,1.6,1.6
							C267.6,512.3,266.9,513,266,513L266,513z"/>
						<g>
							<path class="st66" d="M266,510.1C266,510.1,266,510.1,266,510.1c0.7,0,1.3,0.6,1.3,1.3c0,0.7-0.6,1.3-1.3,1.3h0
								c-0.7,0-1.3-0.6-1.3-1.3S265.3,510.1,266,510.1L266,510.1z M266,509.3L266,509.3L266,509.3L266,509.3c-1.1,0-2,0.9-2,2
								c0,1.1,0.9,2,2,2c1.1,0,2-0.9,2-2C268,510.2,267.1,509.3,266,509.3L266,509.3z"/>
						</g>
					</g>
					<circle class="st17" cx="226.4" cy="511.4" r="6.6"/>
					<g>
						<path class="st75" d="M226.6,515c-0.8,0-1.6-0.3-2.2-0.9s-0.9-1.4-0.9-2.2c0-1.7,1.4-3.2,3.2-3.2c1.8,0,3.2,1.4,3.2,3.2
							C229.7,513.6,228.3,515,226.6,515L226.6,515z"/>
						<path class="st75" d="M226.6,509C226.6,509,226.6,509,226.6,509c1.6,0,2.9,1.3,2.9,2.9c0,1.6-1.3,2.9-2.9,2.9c0,0,0,0,0,0
							c-1.6,0-2.9-1.3-2.9-2.9C223.7,510.3,225,509,226.6,509L226.6,509z M226.6,508.4c-1.9,0-3.5,1.5-3.5,3.4
							c0,1.9,1.5,3.5,3.4,3.5c1.9,0,3.5-1.5,3.5-3.4C230,510,228.5,508.4,226.6,508.4L226.6,508.4L226.6,508.4L226.6,508.4z"/>
					</g>
					<g>
						<path class="st66" d="M229.7,512.5c-0.4,0-0.9-0.2-1.2-0.5c-0.3-0.3-0.5-0.7-0.5-1.2c0-0.9,0.7-1.6,1.6-1.6
							c0.9,0,1.6,0.7,1.6,1.6C231.4,511.8,230.6,512.5,229.7,512.5L229.7,512.5z"/>
						<g>
							<path class="st66" d="M229.7,509.6L229.7,509.6c0.7,0,1.3,0.6,1.3,1.3c0,0.7-0.6,1.3-1.3,1.3h0c-0.7,0-1.3-0.6-1.3-1.3
								C228.5,510.2,229,509.6,229.7,509.6L229.7,509.6z M229.7,508.8L229.7,508.8L229.7,508.8L229.7,508.8c-1.1,0-2,0.9-2,2
								c0,1.1,0.9,2,2,2c1.1,0,2-0.9,2-2C231.8,509.8,230.9,508.8,229.7,508.8L229.7,508.8z"/>
						</g>
					</g>
				</g>
			</g>
			<path class="st96" d="M310.8,502.2c0.1-37-29.9-67.1-66.9-67.1s-67.1,29.9-67.1,66.9l-0.1,29.1c-0.1,24.3,29.9,44,66.9,44.1
				c37,0.1,67-19.5,67.1-43.8L310.8,502.2z"/>
			<g>
				<path class="st68" d="M198.2,482.1c-0.7,0-1.4-0.2-2.1-0.5c-2.1-1.2-2.9-3.8-1.7-5.9c9.5-17.3,26.9-28.6,46.6-30.2
					c5.1-0.4,10.3-0.1,15.3,0.8c2.4,0.4,3.9,2.7,3.5,5.1c-0.4,2.4-2.7,3.9-5.1,3.5c-4.3-0.8-8.7-1-13-0.7
					c-16.7,1.3-31.5,10.9-39.6,25.7C201.2,481.2,199.7,482.1,198.2,482.1z"/>
			</g>
			<g>
				<path class="st68" d="M191.8,512.2c-2.2,0-4.1-1.7-4.3-4c-0.5-6.1,0-12.2,1.4-18.1c0.6-2.3,2.9-3.8,5.2-3.2
					c2.3,0.6,3.8,2.9,3.2,5.2c-1.2,5-1.6,10.2-1.2,15.4c0.2,2.4-1.6,4.5-4,4.7C192,512.2,191.9,512.2,191.8,512.2z"/>
			</g>
		</g>
		<path class="st95" d="M312,746.8c0-1.6-1.3-2.9-2.9-2.9l-10.1,0c0.9,0.5,1.6,1.5,1.6,2.7l0,4c0,1.4-1,2.6-2.3,2.9l10.7,0
			c1.6,0,2.9-1.3,2.9-2.9L312,746.8z"/>
		<path class="st95" d="M312,691.4c0-1.6-1.2-2.4-2.6-1.7l-7.3,3.2c0,0,0,0,0,0.1l0,20.7c0,0.5-0.1,0.9-0.3,1.4l7.4-1.8
			c1.5-0.4,2.8-2,2.8-3.6L312,691.4z"/>
	</g>
	<g>
		<path class="st67" d="M334.5,727.5c-2.8,0-5-2.2-5-5c0-2.8,2.2-5,5-5c5.8,0,8.7-2,8.7-6v-16.7c0-2.8,2.2-5,5-5s5,2.2,5,5v16.7
			C353.2,718.8,348.3,727.5,334.5,727.5z"/>
	</g>
	<g>
		<path class="st67" d="M333.9,711c-2.8,0-5-2.2-5-5v-9.5c0-2.8,2.2-5,5-5s5,2.2,5,5v9.5C338.9,708.7,336.6,711,333.9,711z"/>
	</g>
	<path class="st67" d="M335.9,705.2c1.4,0,10.3,0,10.3,0v-9.9l-13.1,0.3L335.9,705.2z"/>
	<path class="st12" d="M321.8,686.7c0-1.6,1.3-2.9,2.9-2.9l31.3,0.1c1.6,0,2.9,1.3,2.9,2.9l0,6.7c0,1.6-1.3,2.9-2.9,2.9l-31.3-0.1
		c-1.6,0-2.9-1.3-2.9-2.9L321.8,686.7z"/>
	<g>
		<path class="st91" d="M341.2,721.4c-2.8,0-5-2.2-5-5v-10.1c0-2.8,2.2-5,5-5s5,2.2,5,5v10.1C346.2,719.1,344,721.4,341.2,721.4z"/>
	</g>
	<g>
		<path class="st21" d="M365.8,723.3V775c0,3.8-3.1,7-7,7h-17.6v-65.6h17.6C362.7,716.4,365.8,719.5,365.8,723.3z"/>
		<path class="st67" d="M341.2,716.4v65.6h-14.8c-3.8,0-7-3.1-7-7v-51.6c0-3.8,3.1-7,7-7H341.2z"/>
	</g>
	<path class="st60" d="M358.8,716.4h-5c3.8,0,7,3.1,7,7V775c0,3.8-3.1,7-7,7h5c3.8,0,7-3.1,7-7v-51.7
		C365.8,719.5,362.7,716.4,358.8,716.4z"/>
</g>
<g>
	<path class="st92" d="M673.8,771c0-9.6-8.1-17.5-18-17.5H416.8c-9.9,0-18,7.9-18,17.5c0,9.6,8.1,17.5,18,17.5h239.1
		C665.7,788.5,673.8,780.6,673.8,771z"/>
	<g>
		<g>
			<path class="st34" d="M468.9,381.8c-2.1,0-3.8-1.7-3.8-3.8s1.7-3.8,3.8-3.8c20.6,0,34.2-14.6,34.2-24.2c0-2.1,1.7-3.8,3.8-3.8
				s3.8,1.7,3.8,3.8c0,7.1-4.4,15.1-11.7,21.2C490.8,378,480.1,381.8,468.9,381.8z"/>
		</g>
		<g>
			<g>
				<path class="st21" d="M712,702l-4.3,0h-13.3l-107.6,0l-24.6,0l-31.3,0h-5.4l-34.6,0l-88.6,0l11.8-53.1
					c6-36.3,87.9-62.7,87.8-135.7c0-99.2,0-218.3-0.1-291c0-13.7,2.6-27.3,6.6-40l53.7,0l25.1,0l2.9,0l10.4,0l0,0l5,0
					c4.5,13.2,7.4,26.9,7.4,40c0,68.2,0,190.2,0.1,291.7c0,75.2,81.7,98.7,87.7,134.9C701,650.5,712,702,712,702z"/>
				<path class="st62" d="M562.2,681.7V702l-24.8,0h-6.5l-5.4,0h-8.7l-90.6,0h-23.9l11.8-53.1c4.1-24.6,43.2-44.7,67.8-78
					c1-1.4,2-2.8,3-4.2c2.6-3.8,4.9-7.7,7-11.8c1.1-2.1,2.1-4.3,3-6.5c4.4-10.4,7-22.1,7-35.2c0-99.2,0-218.3-0.1-291
					c0-13.7,2.6-27.3,6.6-40l53.7,0L562.2,681.7z"/>
			</g>
			<path class="st22" d="M587,199.8c2,0,3.6,2.2,3.6,5l0,6.9c0,2.8-1.5,5-3.4,5c-1.9,0-5.7,0-8.4,0l-11.5,0c-2.8,0-7.3,0-10,0
				l-31.5,0c-2.8,0-5-2.2-5-5l0-6.9c0-2.8,2.2-5,5-5l31.1,0c2.8,0,7.3,0,10,0l11.5,0C581.1,199.8,585,199.8,587,199.8z"/>
			<path class="st61" d="M599.7,702l90.6,0c-4.7-22.1-7.1-33.8-7.3-34.9c-1.4-8.5-14.9-20.4-28-31.8c-19-16.6-42.8-37.6-55.3-68
				L599.7,702z"/>
			<path class="st65" d="M516.7,702l-90.6,0c4.7-22.1,7.2-33.8,7.3-34.9c1.4-8.5,14.9-20.4,28-31.8c19-16.6,42.8-37.6,55.3-68
				L516.7,702z"/>
		</g>
		<g>
			<path class="st58" d="M605.8,187.2c-2.2,0.1-4.2-1.2-4.9-3.4c-3.7-10.9-8.9-22.1-14.9-32.6c-13.3-23.2-25.4-33.6-28.6-33.8
				c-2.8,0-2.9-6.1-0.2-6.1c11,0,27.1,17,37.5,35c6.4,11,11.8,22.9,15.7,34.4c0.9,2.6-0.5,5.5-3.1,6.3
				C606.7,187.1,606.2,187.2,605.8,187.2z"/>
		</g>
		<path class="st60" d="M705.7,648c-2.6-15.9-17.1-28.6-33.9-43.3C646.6,582.6,618,557.5,618,514l0-291.7c0-12.7-2.6-26.7-7.7-41.6
			c-0.9-2.6-3.7-4-6.3-3.1c-2.6,0.9-4,3.7-3.1,6.3c4.7,13.9,7.1,26.8,7.1,38.4l0,291.7c0,48.1,31.7,75.9,57.1,98.2
			c15.4,13.5,28.6,25.1,30.7,37.5c0.3,1.6,9.5,43.7,11.3,52.3l10-0.3C712.8,681.3,706,649.6,705.7,648z"/>
		<g class="st40">
			<path class="st85" d="M560.1,756c-2.7,0-5-2.2-5-4.9l-0.8-68.2c0-2.8,2.2-5,4.9-5.1c0,0,0,0,0.1,0c2.7,0,5,2.2,5,4.9l0.8,68.2
				C565.1,753.7,562.9,756,560.1,756C560.1,756,560.1,756,560.1,756z"/>
		</g>
		<g>
			<path class="st22" d="M590.3,148.7c-12-20.8-25.6-35.6-32.5-36.3c-0.2,0-0.3,0-0.5,0c-2.4,0-5.9,1.9-9.9,5.4
				c-5.6,4.8-12.2,12.5-18.7,22.3c-7.7,11.6-15.2,26.2-20.3,42.1l78.8,0l2.9,0l10.4,0l0,0l5,0C601.5,170.3,596.1,158.8,590.3,148.7z
				"/>
			<path class="st85" d="M707.7,702h-13.3c-3.4-16-9.6-45.2-9.8-46.6c-2-11.8-15-23.3-30.2-36.6c-25.7-22.5-57.6-50.6-57.7-99.4
				l0-291.7c0-11.4-2.4-24.2-7.1-37.9c-0.5-1.3-1.7-4.4-2.4-7.5l2.9,0l10.4,0l0,0c0.6,1.2,1,2.4,1.4,3.3c5.1,15.1,7.7,29.2,7.7,42.1
				l0,291.7c0,42.9,28.3,67.7,53.2,89.6c17,14.9,31.7,27.8,34.4,44.2C697.7,654.7,703.4,681.8,707.7,702z"/>
		</g>
		<g>
			<path class="st14" d="M600.6,182.2l-10.4,0c-3.6-10.2-8.5-20.8-14.2-30.6c-13.2-23-25.2-33.5-28.5-33.8c3.2-3.9,6.4-6.5,8.8-6.5
				c0.2,0,1.5,1.1,1.7,1.1c9.2,7.2,19.5,21.4,26.8,34.2c6.4,11.1,11.8,22.9,15.7,34.4C600.4,181.4,600.5,181.8,600.6,182.2z"/>
		</g>
		<g class="st40">
			<path class="st49" d="M575.9,202.4c2.8,0,5.1,2.2,5.2,5l0.1,1.8c0.1,2.7-2.1,5-4.8,5l-6.7,0c-2.8,0-5.1-2.2-5.2-5l-0.1-1.8
				c-0.1-2.7,2.1-5,4.8-5L575.9,202.4z"/>
		</g>
		<g class="st9">
			<path class="st61" d="M542,199.8c2.8,0,5.1,2.2,5.1,4.9l0.2,6.9c0.1,2.7-2.1,5-4.9,5.1l-9.4,0.1c-2.8,0-5.1-2.2-5.1-4.9l-0.2-6.9
				c-0.1-2.7,2.1-5,4.9-5.1L542,199.8z"/>
		</g>
		<path class="st85" d="M535.6,336.7c0,3.9-3.2,7-7,6.9l-7.1-0.1c-3.8,0-7-3.2-7-7.1l0.1-47.3c0-3.9,3.2-7,7-6.9l7.1,0.1
			c3.8,0,7,3.2,7,7.1L535.6,336.7z"/>
		<path class="st21" d="M536.9,289.6l0,4.5l-0.1,19.2l-0.1,23.6c0,3.2-2.2,5.9-5.2,6.7l-6.6,0.1c-4.3,0-4.4-3.3-4.4-7.2l0.1-47.3
			c0-3.2,2.2-5.9,5.2-6.7c0,0,0,0,0,0l4,0C533.8,282.6,536.9,285.8,536.9,289.6z"/>
		<path class="st60" d="M574.6,698.1c0,7.2-5.8,13-13,13l0,0c-7.2,0-12-6.7-12-13.9l0.6-119.1c0-7.2,4.8-13,11.9-13l0,0
			c7.2,0,13,5.8,13,13L574.6,698.1z"/>
		<path class="st85" d="M565.1,702.5c0,4.3-3.5,7.8-7.8,7.8l0,0c-4.3,0-7.8-3.5-7.8-7.8l0.5-127.5c0-4.3,3.5-7.8,7.8-7.8l0,0
			c4.3,0,7.8,3.5,7.8,7.8L565.1,702.5z"/>
		<g>
			<path class="st21" d="M621.4,734.3c-2,0-3.9-1.2-4.7-3.2l-30.3-78.8l-3.9-3.4c-2.1-1.8-2.3-5-0.5-7.1s5-2.3,7.1-0.5l5.8,5
				l31.2,81.2c1,2.6-0.3,5.5-2.9,6.5C622.6,734.2,622,734.3,621.4,734.3z"/>
		</g>
		<path class="st32" d="M621.4,729.3l13.8,35.9L621.4,729.3z"/>
		<path class="st85" d="M537.4,676.5V702h-6.5l-5.4,0h-9.8c-2-2.9-3.9-6.2-5.3-8.9l-8.9-17.7c-2.5-4.9,0-8.9,5.5-8.9h20.5
			C532.9,666.5,537.4,671,537.4,676.5z"/>
		<g>
			<path class="st21" d="M491.8,554.9V699h-10V570.9c1-1.4,2-2.8,3-4.2C487.3,562.9,489.7,559,491.8,554.9z"/>
		</g>
	</g>
	<g>
		<path class="st34" d="M451.5,642.6c-0.8,0-1.6-0.3-2.3-0.8c-1.7-1.3-2-3.7-0.7-5.3l14.3-19l-14.3-19c-1-1.4-1-3.2,0-4.6l14.3-19
			l-14.3-19c-1-1.4-1-3.2,0-4.6l14.3-19l-14.3-19c-1-1.4-1-3.2,0-4.6l14.3-19l-14.3-19c-1-1.4-1-3.2,0-4.6l14.3-19l-14.3-19
			c-1-1.4-1-3.2,0-4.6l14.3-19l-14.3-19c-1-1.4-1-3.2,0-4.6l16.1-21.3c1.3-1.7,3.7-2,5.3-0.7c1.7,1.3,2,3.7,0.7,5.3l-14.3,19
			l14.3,19c1,1.4,1,3.2,0,4.6l-14.3,19l14.3,19c1,1.4,1,3.2,0,4.6l-14.3,19l14.3,19c1,1.4,1,3.2,0,4.6l-14.3,19l14.3,19
			c1,1.4,1,3.2,0,4.6l-14.3,19l14.3,19c1,1.4,1,3.2,0,4.6l-14.3,19l14.3,19c1,1.4,1,3.2,0,4.6l-16.1,21.3
			C453.8,642.1,452.7,642.6,451.5,642.6z"/>
	</g>
	<g>
		<path class="st34" d="M467.6,747.6c-1.2,0-2.3-0.5-3-1.5l-16.1-21.3c-1-1.4-1-3.2,0-4.6l14.3-19l-14.3-19c-1-1.4-1-3.2,0-4.6
			l14.3-19l-14.3-19c-1.3-1.7-0.9-4.1,0.7-5.3c1.7-1.3,4.1-0.9,5.3,0.7l16.1,21.3c1,1.4,1,3.2,0,4.6l-14.3,19l14.3,19
			c1,1.4,1,3.2,0,4.6l-14.3,19l14.3,19c1.3,1.7,0.9,4.1-0.7,5.3C469.2,747.4,468.4,747.6,467.6,747.6z"/>
	</g>
	<g>
		<path class="st71" d="M572.9,758h-26c-2.8,0-5-2.2-5-5s2.2-5,5-5h26c2.8,0,5,2.2,5,5S575.6,758,572.9,758z"/>
	</g>
	<g>
		<path class="st34" d="M448.3,772.5c-2.8,0-5-2.2-5-5v-486c0-2.8,2.2-5,5-5s5,2.2,5,5v486C453.3,770.2,451,772.5,448.3,772.5z"/>
	</g>
	<g>
		<path class="st34" d="M470.3,771.5c-2.8,0-5-2.2-5-5v-485c0-2.8,2.2-5,5-5s5,2.2,5,5v485C475.3,769.2,473,771.5,470.3,771.5z"/>
	</g>
	<path class="st32" d="M647.9,768.5h-26H647.9z"/>
	<rect x="469.9" y="654.9" class="st91" width="53.3" height="115.5"/>
	<polygon class="st1" points="523.2,770.5 502,770.5 502,680.1 469.9,676.8 469.9,654.9 523.2,654.9 	"/>
	<g>
		
			<rect x="437.9" y="705.8" transform="matrix(4.577200e-004 1 -1 4.577200e-004 1200.447 228.5855)" class="st69" width="96" height="18"/>
	</g>
	<path class="st69" d="M528.5,767c0,3.3-2.7,6-6,6h-55.3c-3.3,0-6-2.7-6-6v-6.9c0-3.3,2.7-6,6-6h55.3c3.3,0,6,2.7,6,6V767z"/>
	<path class="st21" d="M528.5,665.5c0,3.3-2.7,6-6,6h-54.3c-3.3,0-6-2.7-6-6v-6.9c0-3.3,2.7-6,6-6h54.3c3.3,0,6,2.7,6,6V665.5z"/>
	<path class="st62" d="M496.8,661.3c0,3-2.5,5.5-5.5,5.5h-18.6c-3,0-5.5-2.5-5.5-5.5v-0.5c0-3,2.5-5.5,5.5-5.5h18.6
		c3,0,5.5,2.5,5.5,5.5V661.3z"/>
	<g>
		<path class="st34" d="M467.6,370.1c-1.2,0-2.3-0.5-3-1.5l-16.1-21.3c-1-1.4-1-3.2,0-4.6l14.3-19l-14.3-19c-1-1.4-1-3.2,0-4.6
			l16.1-21.3c1.3-1.7,3.7-2,5.3-0.7c1.7,1.3,2,3.7,0.7,5.3l-14.3,19l14.3,19c1,1.4,1,3.2,0,4.6l-14.3,19l14.3,19
			c1.3,1.7,0.9,4.1-0.7,5.3C469.2,369.8,468.4,370.1,467.6,370.1z"/>
	</g>
	<path class="st82" d="M602.3,789.5c0-9.9-8.1-18-18-18h-12.5c-9.9,0-18,8.1-18,18v4c0,9.9,8.1,18,18,18h12.5c9.9,0,18-8.1,18-18
		V789.5z"/>
</g>
</svg>
